<?xml version="1.0"?>
<svg version="1.1" xmlns="http://www.w3.org/2000/svg" width="200" height="100" style=""><path fill="#32c7ac" d="M23.96484375,70.17578125l0.0390625,0.0390625l-0.0390625-0.078125l0,0.0390625l0.0390625,0.09765625q0,0.09765625-0.37109375,0.3515625q-0.0390625,0.01953125-0.1171875,0.2734375q0,0.05859375,0.05859375,0.146484375t0.05859375,0.146484375l0,0.0390625q-0.01953125,0.078125-0.107421875,0.107421875t-0.126953125,0.087890625q-0.234375,0.48828125-0.4296875,0.48828125q-0.2734375,0.2734375-0.41015625,0.3125q-0.0390625,0.0390625-0.0390625,0.078125t0.0390625,0.15625t0.0390625,0.15625q-0.0390625,0.1953125-0.21484375,0.44921875t-0.3515625,0.3125q-0.17578125,0.25390625-0.3515625,0.25390625l-0.078125,0q-0.05859375,0-0.13671875,0.029296875t-0.13671875,0.048828125l-0.17578125,0q-0.09765625,0-0.185546875-0.087890625t-0.166015625-0.087890625q-0.13671875,0-0.2734375,0.09765625q-0.44921875,0.3515625-0.72265625,0.3515625q-0.15625,0-0.205078125-0.185546875t-0.087890625-0.205078125l-0.3125,0l-0.64453125,0q-0.09765625,0-0.244140625-0.146484375t-0.224609375-0.146484375q-0.01953125,0-0.0390625,0.01953125t-0.0390625,0.01953125q-0.4296875,0.29296875-0.48828125,0.29296875l-0.078125,0q-0.13671875,0-0.380859375-0.107421875t-0.263671875-0.185546875q0-0.01953125-0.01953125-0.0390625t-0.01953125-0.0390625q0-0.09765625,0.09765625-0.205078125t0.29296875-0.244140625l0.21484375-0.1171875q-0.0390625-0.0390625-0.078125-0.0390625q-0.09765625,0-0.341796875,0.185546875t-0.341796875,0.185546875t-0.15625-0.1171875q-0.0390625-0.0390625-0.0390625-0.15625q0-0.25390625,0.46875-0.60546875q-0.15625-0.15625-0.1953125-0.29296875q-0.46875-0.703125-0.48828125-0.7421875q-0.0390625-0.05859375-0.1953125-0.126953125t-0.15625-0.166015625q0-0.1171875,0.0390625-0.1953125q0.0390625-0.1171875,0.0390625-0.234375q0-0.01953125-0.078125-0.33203125q-0.0390625-0.078125-0.0390625-0.2734375q0-0.3125,0.15625-0.52734375q0-0.0390625,0.01953125-0.087890625t0.01953125-0.068359375l0-0.0390625q-0.15625-0.078125-0.15625-0.1953125q0-0.09765625,0.1171875-0.15625q0.01953125,0,0.078125-0.1953125t0.1953125-0.21484375q0.1171875-0.1171875,0.29296875-0.46875q0.0390625-0.17578125,0.3515625-0.41015625l0-0.1171875q0-0.234375,0.1171875-0.3515625q0.0390625-0.01953125,0.21484375-0.1171875t0.2734375-0.21484375q0.0390625-0.0390625,0.1171875-0.13671875t0.1171875-0.13671875q0.37109375-0.37109375,0.72265625-0.37109375q0.37109375,0,0.64453125,0.44921875q0.4296875-0.37109375,0.99609375-0.37109375q0.234375,0,0.76171875,0.17578125q0.3515625,0,0.908203125,0.341796875t0.732421875,0.654296875q0.83984375,0.72265625,0.95703125,1.03515625q0.2734375,0.546875,0.2734375,1.5234375q0,0.234375-0.0390625,0.2734375l0.09765625,0q0.13671875,0,0.1953125,0.1171875z M18.4765625,72.4609375l0.15625-0.078125q-0.0390625,0-0.15625,0.078125q0.09765625,0.05859375,0.5078125-0.205078125t0.869140625-0.60546875t0.537109375-0.380859375q-0.33203125,0.1953125-0.966796875,0.595703125t-0.947265625,0.595703125z M21.9921875,67.94921875q-0.0390625,0-0.1953125-0.15625q-0.0390625-0.01953125-0.166015625,0.087890625t-0.2734375,0.234375t-0.166015625,0.146484375q-0.60546875,0.60546875-1.34765625,1.25q-0.9765625,0.91796875-1.875,1.875q1.66015625-0.99609375,4.31640625-2.28515625q0.3515625-0.17578125,0.3515625-0.2734375q0-0.15625-0.078125-0.234375q-0.44921875-0.33203125-0.56640625-0.64453125z M20.87890625,67.2265625l-0.0390625,0l0.0390625,0q-0.29296875,0-0.68359375-0.15625q-0.3515625,0.390625-1.07421875,0.95703125q-0.25390625,0.234375-0.791015625,0.693359375t-0.810546875,0.712890625q-0.05859375,0.0390625-0.205078125,0.146484375t-0.234375,0.17578125t-0.166015625,0.17578125t-0.078125,0.205078125l0,0.13671875q0.2734375-0.17578125,1.845703125-1.34765625t2.509765625-1.54296875q-0.1171875-0.15625-0.3125-0.15625z M16.953125,69.3359375q-0.078125,0.078125-0.078125,0.13671875q0.3515625-0.33203125,1.337890625-1.142578125t1.474609375-1.298828125q-0.09765625,0-0.68359375,0.1953125q-0.1171875,0.1171875-0.44921875,0.3125t-0.46875,0.37109375q-0.234375,0.3125-0.52734375,0.3125q-0.078125,0-0.078125,0.1953125q-0.1953125,0.234375-0.3515625,0.60546875q-0.01953125,0.0390625-0.087890625,0.15625t-0.087890625,0.15625z M18.4765625,69.58984375l-0.1953125,0.15625q0.390625-0.2734375,0.390625-0.3125q-0.0390625,0.0390625-0.1953125,0.15625q-0.859375,0.64453125-1.03515625,0.76171875q-0.05859375,0.0390625-0.185546875,0.1171875t-0.185546875,0.1171875q-0.1171875,0.05859375-0.1171875,0.1171875q0,0.0390625,0.078125,0.1953125q0.05859375,0.078125,0.205078125,0.263671875t0.205078125,0.263671875q0.25390625-0.3125,0.576171875-0.6640625t0.537109375-0.576171875t0.6640625-0.64453125t0.5859375-0.537109375t0.693359375-0.615234375t0.615234375-0.556640625q-0.41015625,0.21484375-0.830078125,0.48828125t-1.005859375,0.703125t-0.80078125,0.56640625z M67.475390625,72.4609375l0.0390625,0.0390625l-0.0390625-0.078125l0,0.0390625l0.0390625,0.078125q0,0.1953125-0.60546875,0.48828125l0,0.1171875q0,0.078125-0.0390625,0.1171875q-0.17578125,0.37109375-0.46875,0.37109375q-0.05859375,0-0.17578125-0.01953125t-0.15625-0.01953125q-0.078125,0-0.3125,0.1171875t-0.44921875,0.1171875q-0.15625,0-0.15625-0.078125t0.1171875-0.25390625l-0.1171875,0q-0.3515625,0-0.64453125,0.09765625q-0.078125,0.0390625-0.1953125,0.0390625q-0.13671875,0-0.3515625-0.21484375q-0.05859375,0.1171875-0.41015625,0.1171875l-0.1171875,0l-0.1171875,0q-0.078125,0-0.33203125-0.01953125t-0.3125-0.01953125q-0.29296875,0.09765625-0.60546875,0.09765625q-0.25390625,0-0.3515625-0.09765625l-0.078125,0q-0.09765625,0-0.37109375,0.068359375t-0.3125,0.068359375q-0.09765625,0-0.263671875-0.01953125t-0.263671875-0.01953125q-0.15625,0-0.234375,0.0390625q-0.0390625,0.0390625-0.15625,0.0390625q-0.1953125,0-0.234375-0.0390625q-0.09765625,0-0.224609375,0.048828125t-0.263671875,0.126953125t-0.1953125,0.09765625q-0.15625,0.078125-0.33203125,0.078125q-0.3515625,0-0.3515625-0.1953125q0-0.1171875,0.078125-0.1953125q-0.0390625,0-0.205078125-0.068359375t-0.224609375-0.068359375l-0.09765625,0.0390625q-0.0390625,0.01953125-0.1953125,0.126953125t-0.29296875,0.166015625t-0.21484375,0.0390625q-0.13671875-0.0390625-0.13671875-0.078125l0-0.0390625q-0.0390625-0.0390625-0.234375-0.0390625q-0.078125-0.078125-0.15625-0.078125l-0.15625,0.078125q-0.48828125,0-0.60546875-0.0390625q-0.01953125,0-0.078125,0.01953125t-0.078125,0.01953125q-0.078125,0-0.205078125-0.068359375t-0.205078125-0.068359375l-0.1171875,0l-0.3125,0q-0.3515625,0-0.48828125-0.3515625q-0.0390625-0.078125-0.0390625-0.3515625q0-0.44921875,0.0390625-0.56640625q0-0.05859375-0.01953125-0.166015625t-0.01953125-0.146484375q0-0.15625,0.0390625-0.5078125t0.0390625-0.5078125q0-0.1953125-0.0390625-0.3125q-0.17578125,0.1171875-0.2734375,0.1171875q-0.1171875,0-0.1171875-0.1171875q0-0.1953125,0.234375-0.3125q0.13671875-0.09765625,0.166015625-0.41015625t0.244140625-0.4296875q0.078125-0.0390625,0.21484375-0.166015625t0.21484375-0.166015625q0.09765625-0.0390625,0.15625-0.146484375t0.15625-0.166015625q0.0390625-0.0390625,0.13671875-0.0390625q0.21484375,0,0.3515625,0.2734375q0.09765625,0.15625,0.1953125,0.15625q0.078125,0,0.13671875-0.13671875t0.1171875-0.3515625t0.078125-0.2734375q0.0390625-0.1171875,0.13671875-0.3125t0.13671875-0.3125q0.0390625-0.078125,0.0390625-0.25390625q0-0.1171875,0.0390625-0.1953125q-0.05859375,0-0.166015625,0.01953125t-0.146484375,0.01953125q-0.234375,0-0.33203125-0.15625q0-0.01953125-0.01953125-0.0390625t-0.01953125-0.0390625q0-0.09765625,0.13671875-0.21484375t0.341796875-0.224609375t0.244140625-0.126953125q-0.234375-0.625-0.234375-1.11328125l0-0.15625q0-0.68359375,0.1953125-1.1328125q0-0.01953125,0.01953125-0.087890625t0.01953125-0.107421875q0-0.13671875-0.09765625-0.48828125t-0.09765625-0.5078125l0-0.078125l-0.3125,0.15625q-0.13671875,0-0.17578125-0.078125q-0.0390625-0.0390625-0.0390625-0.1171875q0-0.09765625,0.1171875-0.15625q0.05859375-0.0390625,0.15625-0.107421875t0.166015625-0.1171875t0.126953125-0.107421875q0-0.234375,0.0390625-0.3125q0-0.13671875,0.1171875-0.60546875q-0.078125-0.15625-0.078125-0.390625q0-0.0390625,0.01953125-0.126953125t0.01953125-0.126953125q-0.234375,0.1171875-0.46875,0.1171875q-0.21484375,0-0.21484375-0.15625q0-0.1171875,0.0390625-0.1953125q0.13671875-0.3515625,0.52734375-0.72265625q0-0.05859375-0.0390625-0.1953125t-0.0390625-0.1953125q-0.1953125,0-0.1953125-0.17578125q0-0.078125,0.0390625-0.1953125l0.0390625-0.1171875l0-0.0390625q0-0.078125-0.078125-0.3125q-0.01953125-0.05859375-0.087890625-0.2734375t-0.087890625-0.33203125q-0.01953125-0.09765625-0.91796875-0.44921875q-0.3125-0.078125-0.546875-0.078125q-0.29296875-0.0390625-0.33203125-0.078125q-0.1171875,0.1171875-0.2734375,0.1171875q-0.1171875-0.01953125-0.302734375,0.087890625t-0.224609375,0.126953125q-0.15625,0.05859375-0.33203125-0.1171875t-0.25390625-0.37109375q-0.0390625,0.0390625-0.0390625,0.15625l0,0.1953125l0,0.17578125q-0.13671875,0.2734375-0.37109375,0.390625q-0.0390625,0.01953125-0.3515625,0.1953125t-0.41015625,0.33203125q0,0.078125-0.390625,1.23046875q-0.09765625,0.1953125-0.29296875,0.48828125q0,0.0390625-0.01953125,0.068359375t-0.01953125,0.048828125t0.029296875,0.048828125t0.048828125,0.068359375q0.0390625,0.0390625,0.0390625,0.1171875q0,0.0390625-0.05859375,0.078125t-0.05859375,0.078125q-0.078125,0.390625-0.078125,0.64453125q0,0.078125,0.01953125,0.244140625t0.01953125,0.244140625q0.1171875-0.1171875,0.29296875-0.1171875l0.078125,0q0.15625,0,0.15625,0.15625q0,0.078125-0.1171875,0.1953125q-0.0390625,0.01953125-0.107421875,0.068359375t-0.09765625,0.068359375t-0.078125,0.05859375t-0.068359375,0.078125t-0.0390625,0.09765625t-0.01953125,0.1171875l0,0.078125q0.078125,0.390625,0.078125,0.76171875q0.0390625,0.15625,0.0390625,0.5078125q0.21484375,0,0.21484375,0.25390625l0,0.078125q0,0.05859375-0.05859375,0.166015625t-0.05859375,0.185546875q0,0.0390625,0.01953125,0.1953125t0.01953125,0.21484375l0,0.15625q0,0.15625-0.09765625,0.546875l0,0.17578125q0,0.234375-0.078125,0.703125l0,0.37109375q0,0.2734375-0.0390625,0.3515625q0.05859375,0.17578125,0.1171875,0.625t0.13671875,0.6640625q0.0390625,0.1171875,0.087890625,0.17578125t0.09765625,0.068359375t0.126953125,0.05859375t0.15625,0.126953125l0.17578125,0.078125q0.1953125,0.05859375,0.234375,0.09765625q0.0390625-0.0390625,0.1953125-0.0390625l0.1171875,0q0.15625,0,0.234375,0.078125q0.13671875-0.13671875,0.25390625-0.13671875l0.078125,0q0.13671875,0,0.3125,0.17578125q0.15625,0.15625,0.15625,0.625q0.0390625,0.1171875,0.0390625,0.33203125l0,0.4296875q0,0.29296875,0.0390625,0.41015625q0.078125-0.078125,0.25390625-0.078125q0.15625,0,0.15625,0.15625t-0.37109375,0.52734375q-0.078125,0.0390625-0.078125,0.390625l0,0.2734375q0.1953125-0.1953125,0.33203125-0.1953125q0.01953125,0,0.05859375-0.01953125t0.05859375-0.01953125q0.1953125,0,0.1953125,0.1953125q0,0.1171875-0.1171875,0.17578125q-0.0390625,0.078125-0.234375,0.166015625t-0.21484375,0.107421875q-0.078125,0.0390625-0.1171875,0.15625t-0.1171875,0.15625q-0.0390625,0.01953125-0.146484375,0.13671875t-0.244140625,0.1171875q-0.0390625,0.0390625-0.17578125,0.0390625q-0.05859375,0-0.185546875-0.068359375t-0.205078125-0.068359375q-0.078125-0.0390625-0.3515625-0.0390625l-0.33203125,0q-0.25390625,0.17578125-0.60546875,0.17578125l-0.078125,0l-0.4296875,0l-0.1953125,0q-0.05859375-0.01953125-0.166015625,0.029296875t-0.126953125,0.048828125q-0.05859375,0-0.1171875-0.1171875l-0.078125,0l-0.15625,0q-0.234375,0.078125-0.60546875,0.078125q-0.390625,0-0.56640625-0.17578125l-0.15625,0q-0.3125,0-0.46875-0.078125q-0.078125,0.01953125-0.283203125,0.09765625t-0.283203125,0.078125q-0.234375,0-0.60546875,0.185546875t-0.5859375,0.205078125q-0.15625,0.01953125-0.283203125-0.048828125t-0.244140625-0.185546875t-0.1953125-0.15625q-0.15625,0.078125-0.21484375,0.078125t-0.166015625-0.01953125t-0.146484375-0.01953125l-0.078125,0q-0.078125,0.0390625-0.2734375,0.0390625q-0.21484375,0-0.33203125,0.0390625q-0.078125,0.0390625-0.234375,0.0390625q-0.13671875,0-0.72265625-0.1171875q-0.390625-0.09765625-0.64453125-0.09765625q-0.1953125,0-0.390625,0.09765625q-0.29296875,0.1953125-0.44921875,0.1953125l-0.0390625,0q-0.15625-0.05859375-0.15625-0.15625q0-0.13671875,0.1953125-0.33203125q-0.0390625-0.0390625-0.0390625-0.234375l0-0.41015625l0-0.15625q-0.0390625-0.078125-0.0390625-0.2734375l0-0.3125l0-0.17578125l-0.078125,0q-0.3515625,0-0.3515625-0.15625q0-0.078125,0.078125-0.15625q0.2734375-0.2734375,0.3125-0.52734375l0-0.1171875l0-0.1953125q0.01953125-0.13671875-0.009765625-0.380859375t-0.029296875-0.302734375q0-0.29296875,0.15625-0.5078125q0.13671875-0.21484375,0.37109375-0.21484375q0.1171875,0,0.1953125,0.0390625q0.15625-0.1171875,0.3515625-0.1171875q0.25390625,0,0.41015625,0.0390625q0.05859375,0,0.185546875,0.01953125t0.166015625,0.01953125q0.29296875,0,0.33203125-0.2734375q0-0.1171875,0.087890625-0.2734375t0.107421875-0.21484375q0.0390625-0.09765625,0.078125-0.283203125t0.078125-0.263671875q0.078125-0.1953125,0.087890625-0.5859375t0.068359375-0.546875q-0.1171875-0.390625-0.1171875-1.23046875l0-0.60546875q-0.078125,0.0390625-0.15625,0.0390625t-0.078125-0.078125q0-0.09765625,0.13671875-0.33203125l0.13671875-0.234375q-0.0390625-0.1953125-0.0390625-0.83984375q-0.078125-0.3125-0.078125-0.5078125q0-0.1171875,0.1171875-1.171875l-0.078125-0.52734375q-0.078125-0.5078125-0.078125-0.78125q0-0.25390625,0.0390625-0.33203125l0-0.15625q0-0.09765625,0.01953125-0.341796875t0.01953125-0.341796875q0-0.2734375-0.078125-0.390625q-0.390625,0.390625-0.64453125,0.390625q-0.078125,0-0.15625-0.078125q-0.0390625-0.0390625-0.0390625-0.1171875q0-0.09765625,0.17578125-0.21484375t0.3515625-0.224609375t0.15625-0.166015625q-0.01953125,0-0.1953125,0.1171875t-0.25390625,0.09765625q-0.15625-0.05859375-0.15625-0.21484375q0-0.078125,0.0390625-0.1171875q0.01953125-0.05859375,0.15625-0.17578125t0.17578125-0.17578125q-0.234375-0.05859375-0.52734375-0.2734375l-0.3515625-0.13671875q-0.01953125,0-0.05859375,0.01953125t-0.1171875,0.048828125t-0.15625,0.068359375q-0.01953125,0-0.05859375,0.01953125t-0.05859375,0.01953125q-0.234375,0-0.234375-0.21484375q0-0.13671875,0.15625-0.1953125q-0.078125-0.0390625-0.2734375-0.0390625q-0.29296875,0-0.56640625,0.224609375t-0.576171875,0.5859375t-0.458984375,0.478515625q-0.3515625,0.2734375-0.68359375,0.390625q-0.078125,0.01953125-0.283203125,0.0390625t-0.322265625,0.1171875q-0.05859375,0.09765625-0.068359375,0.3515625t-0.048828125,0.33203125l0,0.3125q0,0.0390625,0.0390625,0.185546875t0.0390625,0.185546875l0,0.0390625q-0.078125,0.234375-0.15625,0.2734375q-0.078125,0.078125-0.078125,0.15625q0.0390625,0.05859375,0.0390625,0.09765625l0,0.078125l0,0.15625q0.078125,0.390625,0.078125,0.80078125t-0.078125,0.80078125l0.1171875,0q0.2734375,0,0.2734375,0.1953125l0,0.0390625q-0.0390625,0.21484375-0.46875,0.52734375q0,0.46875-0.0390625,0.625l0,0.05859375q0,0.01953125,0.05859375,0.0390625q0.01953125,0.01953125,0.029296875,0.01953125t0.029296875,0.01953125l0,0.078125q0,0.1171875-0.15625,0.4296875q0,0.44921875,0.0390625,0.64453125q0.15625,0.625,0.15625,1.3671875q0,0.60546875-0.078125,0.80078125q0.078125,0.234375,0.078125,0.95703125l0,0.234375l0,0.078125q0.234375,0,0.4296875,0.1953125q0.078125-0.078125,0.17578125-0.078125t0.15625,0.15625q0.0390625-0.0390625,0.15625-0.0390625q0.01953125,0,0.3125,0.09765625q0.1171875-0.05859375,0.25390625-0.05859375q0.390625,0,0.5859375,0.33203125q0.13671875,0.17578125,0.13671875,0.68359375q0,0.1953125-0.029296875,0.546875t-0.029296875,0.44921875l0,0.56640625l0,0.2734375l0,0.078125q0,0.078125-0.078125,0.234375q0.05859375,0.05859375,0.13671875,0.21484375l0,0.1953125q0,0.09765625-0.05859375,0.15625q-0.05859375,0.15625-0.185546875,0.234375t-0.302734375,0.13671875t-0.25390625,0.1171875q-0.3125,0.15625-0.48828125,0.15625q-0.1171875,0-0.1171875-0.1171875l0-0.09765625q-0.2734375,0.13671875-0.29296875,0.13671875q-0.15625,0-0.15625-0.21484375l-0.078125,0q-0.05859375,0-0.13671875,0.01953125t-0.13671875,0.01953125t-0.166015625-0.0390625t-0.166015625-0.0390625q-0.0390625,0.0390625-0.1953125,0.0390625t-0.234375-0.078125q-0.1171875,0.0390625-0.341796875,0.185546875t-0.341796875,0.146484375q-0.01953125,0-0.078125-0.01953125t-0.078125-0.01953125q-0.0390625,0-0.09765625,0.01953125t-0.09765625,0.01953125q-0.09765625,0-0.283203125-0.048828125t-0.244140625-0.068359375q-0.3515625,0.234375-0.64453125,0.234375q-0.15625,0-0.2734375-0.1171875q0-0.01953125-0.302734375-0.09765625t-0.380859375-0.078125q-0.1171875,0.05859375-0.2734375,0.05859375q-0.17578125,0-0.72265625-0.13671875q-0.15625,0.078125-0.52734375,0.078125l-0.15625,0l-0.078125,0q-0.05859375,0-0.146484375-0.01953125t-0.126953125-0.01953125q-0.078125,0.0390625-0.224609375,0.107421875t-0.224609375,0.107421875q-0.01953125,0-0.05859375,0.01953125t-0.05859375,0.01953125q-0.13671875,0-0.1953125-0.1171875q-0.29296875,0-0.41015625-0.0390625q-0.078125,0-0.1953125,0.1171875l-0.078125,0q-0.05859375,0-0.185546875-0.05859375t-0.205078125-0.05859375q-0.078125,0.0390625-0.25390625,0.0390625q-0.15625,0-0.234375-0.0390625l-0.3515625-0.05859375q-0.2734375,0.17578125-0.44921875,0.17578125q-0.05859375,0-0.1953125-0.0390625t-0.21484375-0.0390625q-0.83984375,0-0.83984375-0.72265625q0-0.01953125,0.029296875-0.09765625t0.029296875-0.1171875l-0.09765625,0q-0.1171875-0.05859375-0.1171875-0.234375q0-0.078125,0.29296875-0.95703125q0.078125-0.234375,0.078125-0.3515625t-0.01953125-0.361328125t-0.01953125-0.361328125l0-0.15625l0-0.13671875q0-0.87890625,0.95703125-0.87890625q0.05859375,0,0.29296875,0.05859375t0.3515625,0.05859375t0.33203125-0.21484375t0.29296875-0.25390625l0.56640625-0.078125q0-0.15625,0.078125-0.234375l0-0.13671875q0-0.2734375,0.078125-0.4296875q0.09765625-1.0546875,0.1953125-1.328125q-0.15625-0.546875-0.15625-1.15234375q0-0.29296875,0.0390625-0.41015625q0-0.05859375,0.01953125-0.185546875t0.01953125-0.205078125q0-0.1171875-0.01953125-0.380859375t-0.01953125-0.380859375q0-0.21484375,0.078125-0.52734375l0-0.1171875q0-0.09765625,0.048828125-0.3515625t0.048828125-0.33203125q0-0.01953125-0.068359375-0.21484375t-0.068359375-0.29296875l0-0.078125q0-0.44921875,0.078125-0.83984375l0-0.25390625q0-0.44921875,0.05859375-0.625q0.078125-0.3125,0.078125-0.52734375q0-0.3125-0.13671875-0.9375t-0.15625-0.703125t-0.01953125-0.15625q0-0.05859375-0.09765625-0.05859375q-0.078125-0.01953125-0.15625-0.01953125q-0.21484375-0.078125-0.2734375-0.25390625l-0.0390625,0q-0.09765625,0-0.380859375,0.13671875t-0.341796875,0.15625q-0.0390625,0-0.126953125,0.01953125t-0.126953125,0.01953125q-0.21484375,0-0.3125-0.15625q0-0.078125-0.1953125-0.078125q-0.05859375,0-0.1953125,0.01953125l-0.13671875,0.01953125q-0.078125-0.13671875-0.1171875-0.13671875q-0.01953125,0-0.1171875,0.09765625l-0.078125,0.0390625q-0.078125,0-0.15625-0.078125q-0.0390625-0.0390625-0.0390625-0.13671875q0-0.0390625,0.01953125-0.068359375t0.01953125-0.048828125l0-0.0390625q-0.15625-0.09765625-0.15625-0.5078125q0-0.078125,0.01953125-0.205078125t0.01953125-0.166015625q0.0390625-0.234375,0.0390625-0.72265625l0-0.3125q-0.01953125,0-0.205078125,0.09765625t-0.283203125,0.09765625q-0.15625,0-0.15625-0.1953125q0-0.078125,0.078125-0.185546875t0.1953125-0.21484375t0.15625-0.166015625l0.13671875-0.15625l0-0.1171875l0-0.1171875q-0.0390625-0.1171875-0.0390625-0.44921875q0-0.37109375,0.166015625-0.595703125t0.537109375-0.205078125q0.05859375,0,0.205078125-0.01953125t0.205078125-0.01953125q0.1171875,0,0.1953125,0.0390625t0.15625,0.0390625q0.05859375,0,0.17578125-0.0390625l0.1171875,0q0.078125,0,0.185546875,0.05859375t0.166015625,0.05859375q0.01953125,0,0.05859375-0.01953125t0.05859375-0.01953125q0.234375-0.15625,0.37109375-0.15625l0.078125,0q0.72265625,0,1.4453125,0.1171875l0.1171875,0q0.09765625,0,0.3125-0.0390625t0.3125-0.0390625q0.17578125,0,0.21484375,0.0390625q0.1171875,0.01953125,0.4296875-0.087890625t0.44921875-0.107421875l0.1171875,0q0.13671875,0.0390625,0.48828125,0.068359375t0.546875,0.087890625l0.234375,0l0.44921875,0q0.234375,0.01953125,0.693359375,0.0390625t0.712890625,0.0390625q0.15625,0.01953125,0.25390625,0.1171875t0.146484375,0.2734375t0.068359375,0.3125t0.029296875,0.33203125t0.009765625,0.25390625q1.07421875-0.87890625,3.84765625-1.640625q0.078125-0.01953125,0.322265625-0.13671875t0.439453125-0.17578125t0.3515625-0.05859375q0.0390625,0,0.09765625,0.01953125t0.09765625,0.01953125q0.078125-0.0390625,0.21484375-0.0390625q0.1171875,0,0.15625,0.09765625q0.1171875-0.01953125,0.15625-0.078125t0.15625-0.05859375q0.09765625,0,0.263671875,0.087890625t0.263671875,0.087890625q0.5078125,0.01953125,2.24609375,0.46875q0.1171875,0.0390625,0.41015625,0.205078125t0.4296875,0.166015625q0.1171875,0,0.15625-0.0390625q0.0390625-0.01953125,0.166015625-0.09765625t0.185546875-0.078125q0.1171875,0,0.15625,0.078125l0.0390625,0.09765625q0,0.13671875-0.2734375,0.2734375q0.1171875,0.078125,0.3515625,0.224609375t0.380859375,0.244140625t0.322265625,0.263671875t0.2734375,0.341796875q0.13671875,0.05859375,0.263671875,0.29296875t0.205078125,0.3125q0.37109375-0.390625,0.52734375-0.41015625q0.078125-0.01953125,0.15625-0.029296875t0.126953125-0.029296875t0.107421875-0.09765625q0.3515625-0.48828125,1.0546875-1.38671875q0.625-0.72265625,1.34765625-0.72265625q0.6640625,0,1.03515625,0.76171875q0.09765625-0.05859375,0.3125-0.244140625t0.419921875-0.322265625t0.361328125-0.1171875q0.1171875,0.01953125,0.33203125-0.1171875t0.3515625-0.13671875l0.078125,0q0.0390625,0,0.09765625,0.029296875t0.09765625,0.029296875q0.09765625,0,0.302734375-0.048828125t0.302734375-0.048828125l0.1171875,0l0.1171875,0q0.078125,0,0.244140625-0.01953125t0.244140625-0.01953125q0.29296875,0,0.4296875,0.13671875q0.05859375,0.0390625,0.400390625,0.1953125t0.478515625,0.2734375q0.44921875,0.1171875,0.60546875,0.2734375q0.09765625,0,0.21484375,0.068359375t0.17578125,0.068359375q0.01953125,0,0.21484375-0.09765625q0.15625-0.078125,0.234375-0.078125q0.1953125,0,0.1953125,0.17578125q0,0.13671875-0.15625,0.234375q0.05859375,0.0390625,0.234375,0.13671875t0.234375,0.13671875l0.13671875,0.0390625q0.05859375,0,0.13671875-0.048828125t0.17578125-0.068359375q0.078125-0.0390625,0.15625-0.0390625q0.1171875,0,0.1171875,0.1953125l-0.078125,0.44921875q0.0390625,0.01953125,0.09765625,0.09765625t0.09765625,0.09765625q0.78125,0.60546875,1.0546875,1.8359375q0.078125-0.0390625,0.1953125-0.0390625q0.1953125,0,0.1953125,0.25390625t-0.1953125,0.546875q0.1171875,0.5859375,0.1171875,0.60546875q0.15625,0.37109375,0.15625,0.99609375q0,0.44921875-0.078125,1.15234375q0.234375-0.1171875,0.33203125-0.1171875q0.078125,0,0.15625,0.0390625q0.15625,0.05859375,0.15625,0.13671875q0,0.1953125-0.234375,0.3125q-0.33203125,0.21484375-0.33203125,0.3515625q0,0.0390625,0.01953125,0.126953125t0.01953125,0.126953125q0,0.1953125-0.078125,0.3125l0,0.1171875q0,0.25390625-0.078125,0.48828125q0,0.078125-0.0390625,0.244140625t-0.0390625,0.224609375l0,0.078125q0.1171875,0.17578125,0.1171875,0.48828125q0.01953125,0.13671875,0.029296875,0.166015625t0.078125,0.048828125t0.126953125,0.05859375q0.09765625,0.09765625,0.09765625,0.21484375q0,0.05859375-0.13671875,0.1953125q-0.078125,0-0.078125,0.1171875q0,0.01953125,0.01953125,0.087890625t0.01953125,0.107421875q0,0.13671875,0.01953125,0.166015625t0.078125,0.048828125t0.1171875,0.1171875q0.0390625,0.0390625,0.0390625,0.15625q0,0.2734375-0.37109375,0.64453125q0,0.05859375,0.0390625,0.087890625t0.107421875,0.048828125t0.107421875,0.05859375t0.0390625,0.1171875t-0.166015625,0.1171875t-0.166015625,0.078125l0,0.1171875q0,0.29296875-0.0390625,0.37109375q0.0390625,0.15625,0.0390625,0.546875l0,0.9375l0,0.4296875q0.01953125,0.09765625,0.0390625,0.322265625t0.068359375,0.3515625t0.185546875,0.205078125q0.60546875,0,0.91796875,0.15625q0.1171875,0,0.361328125,0.01953125t0.361328125,0.01953125q0.0390625-0.0390625,0.1953125-0.0390625q0.078125,0,0.244140625,0.01953125t0.224609375,0.01953125q0.25390625,0,0.52734375,0.37109375q0.15625,0.46875,0.15625,0.546875l0,0.09765625q-0.1171875,0.1171875-0.1171875,0.1953125q0.0390625,0.078125,0.0390625,0.1171875l0,0.078125q0,0.078125-0.0390625,0.29296875t-0.0390625,0.3125q0,0.01953125,0.01953125,0.078125t0.01953125,0.078125l0.15625-0.078125q0.15625,0,0.15625,0.2734375q0,0.15625-0.0390625,0.1953125q-0.234375,0.390625-0.234375,0.56640625q0,0.15625,0.0390625,0.234375q0.46875-0.234375,0.48828125-0.234375q0.078125,0,0.1171875,0.078125z M65.951953125,72.34375q-0.0390625,0.01953125-0.15625,0.087890625t-0.15625,0.107421875q0.078125,0.0390625,0.1953125,0.0390625t0.1171875-0.234375z M65.912890625,71.42578125l0,0.0390625l0-0.0390625q0,0.05859375-0.185546875,0.263671875t-0.400390625,0.439453125t-0.25390625,0.29296875q0.1171875-0.01953125,0.380859375-0.185546875t0.341796875-0.205078125q0.1171875-0.078125,0.1171875-0.21484375l0-0.234375l0-0.15625z M65.346484375,70.2734375q-0.0390625,0.0390625-0.1171875,0.0390625l-0.1171875,0q-0.078125,0-0.15625,0.0390625q-0.13671875,0.13671875-0.25390625,0.1953125q-0.1171875,0.09765625-0.3515625,0.302734375t-0.3515625,0.302734375q-0.09765625,0.078125-0.48828125,0.41015625t-0.56640625,0.5078125q0.29296875-0.17578125,0.8984375-0.546875t0.91796875-0.546875q0.05859375-0.0390625,0.3515625-0.185546875t0.537109375-0.29296875t0.263671875-0.224609375l-0.1953125,0l-0.37109375,0z M63.920703125,70.09765625q-0.05859375,0-0.185546875-0.0390625t-0.185546875-0.0390625q-0.41015625,0-0.72265625,0.1953125q-0.33203125,0.15625-0.95703125,0.517578125t-0.72265625,0.419921875q-2.01171875,1.19140625-2.32421875,1.38671875q0.390625-0.234375,1.3671875-0.78125t1.484375-0.859375q0.41015625-0.21484375,1.30859375-0.76171875q0.0390625-0.0390625,0.17578125-0.0390625q0.234375,0,0.234375,0.25390625q0,0.01953125-0.01953125,0.05859375t-0.01953125,0.05859375q-0.078125,0.4296875-0.91796875,0.95703125q1.34765625-0.9375,1.9921875-1.2890625q-0.078125-0.0390625-0.5078125-0.0390625z M58.022265625,72.5q0.05859375,0,0.15625-0.068359375t0.21484375-0.166015625t0.15625-0.1171875q0.60546875-0.390625,0.91796875-0.64453125q-0.09765625,0.05859375-0.68359375,0.419921875t-0.91796875,0.537109375q0.078125,0.0390625,0.15625,0.0390625z M62.709765625,65.3515625l-0.15625,0.078125q0.15625,0,0.15625-0.078125q-0.17578125,0.1171875-0.537109375,0.33203125t-0.537109375,0.33203125q0.078125-0.0390625,0.41015625-0.1171875t0.5078125-0.205078125t0.15625-0.341796875z M55.424609375,70.859375q0.01953125-0.09765625,0.087890625-0.244140625t0.087890625-0.185546875q-0.17578125,0.078125-0.17578125,0.1953125l0,0.234375z M56.030078125,70.2734375q-0.078125,0.2734375-0.56640625,1.58203125q0.25390625-0.01953125,1.0546875-0.4296875q1.19140625-0.625,2.91015625-1.71875q0.48828125-0.3515625,1.46484375-1.015625l1.46484375-0.99609375q0.01953125-0.01953125,0.09765625-0.078125t0.09765625-0.078125t0.05859375-0.068359375t0.048828125-0.107421875t0.009765625-0.13671875l0-0.56640625l0-0.2734375q-0.56640625,0.3125-1.6796875,0.966796875t-1.6796875,0.986328125q-0.29296875,0.17578125-0.908203125,0.546875t-0.927734375,0.546875q-0.15625,0.078125-0.64453125,0.439453125t-0.80078125,0.400390625z M62.709765625,68.18359375l-0.078125,0.078125l0.078125-0.078125q-0.15625,0.21484375-0.380859375,0.44921875t-0.37109375,0.361328125t-0.478515625,0.400390625t-0.41015625,0.3515625q-0.9765625,0.78125-2.36328125,1.7578125q2.265625-1.2890625,3.1640625-1.8359375q0.3125-0.21484375,0.80078125-0.48828125q0.1953125-0.09765625,0.1953125-0.1953125q0-0.01953125-0.009765625-0.048828125t-0.029296875-0.09765625t-0.0390625-0.126953125q-0.01953125-0.078125-0.0390625-0.263671875t-0.0390625-0.263671875z M60.678515625,66.19140625q0.859375-0.52734375,1.640625-1.0546875q0.0390625-0.0390625,0.126953125-0.087890625t0.1171875-0.068359375t0.078125-0.05859375t0.05859375-0.068359375t0.0390625-0.078125t0.0390625-0.09765625t0.009765625-0.126953125q-1.62109375,1.09375-2.91015625,1.875q-0.05859375,0.01953125-0.439453125,0.205078125t-0.5859375,0.302734375t-0.498046875,0.3125t-0.439453125,0.390625t-0.166015625,0.390625q1.30859375-0.7421875,2.9296875-1.8359375z M62.787890625,63.671875l0.0390625,0l-0.0390625,0z M62.748828125,61.50390625q0-0.078125,0.0390625-0.1171875q-0.05859375,0.0390625-0.15625,0.078125q-0.15625,0.09765625-0.1953125,0.2734375q0,0.09765625-0.078125,0.17578125q-0.0390625,0.01953125-0.126953125,0.078125t-0.126953125,0.078125q-0.17578125,0.15625-0.517578125,0.478515625t-0.517578125,0.478515625q-0.3125,0.25390625-0.8984375,0.771484375t-0.8984375,0.791015625q2.109375-1.26953125,2.71484375-1.5625q0.234375-0.078125,0.44921875-0.078125q0.2734375,0,0.2734375,0.15625q0,0.1171875-0.15625,0.2734375q0.0390625-0.0390625,0.1953125-0.0390625q-0.1171875-0.52734375-0.1171875-0.99609375q0-0.4296875,0.1171875-0.83984375z M57.592578125,65.5859375q1.30859375-1.19140625,3.7109375-3.28125q-0.46875,0.25390625-0.99609375,0.576171875t-1.1328125,0.703125t-0.9375,0.595703125q-0.4296875,0.25390625-0.48828125,0.41015625q0,0.390625-0.1171875,0.5078125l0,0.078125q0,0.0390625-0.01953125,0.15625t-0.01953125,0.17578125l0,0.078125z M60.873828125,61.73828125l0.1171875-0.078125q-0.68359375,0.37109375-0.68359375,0.41015625q0.17578125-0.09765625,0.56640625-0.33203125q0.078125-0.0390625,0.56640625-0.2734375t0.8984375-0.46875t0.41015625-0.33203125q0-0.13671875-0.01953125-0.4296875t-0.01953125-0.44921875l0-0.234375q-0.21484375,0.15625-0.908203125,0.68359375t-1.015625,0.78125t-0.869140625,0.693359375t-0.966796875,0.83984375t-0.791015625,0.830078125q0.83984375-0.64453125,2.71484375-1.640625z M62.670703125,58.30078125l-0.15625,0.15625l0.15625-0.15625q-0.76171875,0.76171875-1.5234375,1.328125q0.0390625-0.01953125,0.60546875-0.322265625t0.87890625-0.400390625q0.15625-0.05859375,0.15625-0.15625t-0.05859375-0.25390625l-0.05859375-0.15625l0-0.0390625z M57.631640625,59.94140625l0.2734375-0.1953125q-0.2734375,0.15625-0.2734375,0.1953125q2.28515625-1.38671875,3.88671875-2.32421875q0.01953125-0.01953125,0.15625-0.078125t0.25390625-0.107421875t0.244140625-0.126953125t0.205078125-0.146484375t0.05859375-0.126953125q-0.15625-0.21484375-0.25390625-0.68359375q-1.50390625,0.9765625-2.59765625,1.7578125q-0.234375,0.17578125-0.693359375,0.517578125t-0.693359375,0.517578125q-0.05859375,0.05859375-0.21484375,0.17578125t-0.1953125,0.166015625t-0.09765625,0.17578125t-0.05859375,0.283203125z M57.514453125,59.21875q0-0.01953125,0.224609375-0.1953125t0.458984375-0.3515625t0.2734375-0.21484375q-0.3515625,0.17578125-0.64453125,0.41015625l-0.09765625,0.048828125t-0.078125,0.029296875t-0.048828125,0.01953125t-0.0390625,0.029296875t-0.01953125,0.048828125t-0.009765625,0.068359375t-0.01953125,0.107421875z M61.225390625,55.17578125l-0.15625,0.13671875l0.15625-0.13671875q-0.48828125,0.37109375-1.4453125,1.015625t-1.30859375,0.87890625q2.1875-1.25,2.96875-1.71875q-0.0390625-0.01953125-0.09765625-0.087890625t-0.1171875-0.087890625z M61.987109375,55.9375q-0.05859375-0.0390625-0.25390625,0.087890625t-0.44921875,0.322265625l-0.25390625,0.1953125q0.01953125-0.01953125,0.087890625-0.05859375t0.15625-0.087890625t0.1953125-0.107421875t0.1953125-0.1171875t0.166015625-0.107421875t0.1171875-0.087890625z M59.467578125,55.9375l-0.5078125,0.37109375q0.1171875-0.09765625,0.5078125-0.37109375l0.76171875-0.5078125q-1.66015625,0.9765625-3.28125,1.875q0.09765625,0.05859375,0.1171875,0.185546875t0.0390625,0.166015625q0.29296875-0.33203125,0.634765625-0.595703125t0.99609375-0.6640625t0.732421875-0.458984375z M60.229296875,54.55078125q-0.15625,0-0.341796875,0.13671875t-0.439453125,0.380859375t-0.29296875,0.283203125q-0.29296875,0.21484375-0.95703125,0.80078125q0.41015625-0.234375,1.2109375-0.693359375t1.19140625-0.712890625q-0.0390625-0.0390625-0.185546875-0.087890625t-0.185546875-0.107421875z M55.229296875,54.0234375l-0.078125,0.0390625q0.078125,0,0.078125-0.0390625q-0.078125,0.0390625-0.146484375,0.078125t-0.107421875,0.05859375t-0.078125,0.068359375t-0.05859375,0.146484375q0.2734375-0.13671875,0.5078125-0.3125q-0.01953125,0-0.05859375-0.01953125t-0.05859375-0.01953125z M53.705859375,53.49609375l-0.078125,0.0390625q0.0390625,0,0.078125-0.0390625q-0.21484375,0.05859375-0.3125,0.17578125q0.1953125,0,0.3125-0.17578125z M49.955859375,56.54296875q-0.13671875-0.13671875-0.33203125-0.52734375q-1.2109375,1.1328125-2.34375,2.28515625q-1.4453125,1.3671875-1.89453125,1.97265625q0.1171875,0,0.263671875-0.029296875t0.25390625-0.068359375t0.263671875-0.126953125t0.234375-0.146484375t0.234375-0.166015625t0.1953125-0.146484375q0.91796875-0.7421875,1.5234375-1.09375q1.484375-1.03515625,4.04296875-2.59765625q-0.44921875,0.13671875-0.60546875,0.25390625q-0.1171875,0.1171875-0.234375,0.1171875q-0.09765625,0-0.25390625-0.078125q-0.05859375,0.05859375-0.146484375,0.13671875t-0.15625,0.146484375t-0.126953125,0.146484375q-0.21484375,0.29296875-0.56640625,0.29296875q-0.29296875,0-0.3515625-0.37109375z M50.600390625,59.62890625q0,0.078125-1.015625,0.83984375q-0.41015625,0.33203125-1.15234375,0.99609375q-1.2109375,1.0546875-1.796875,1.640625q2.28515625-1.50390625,3.2421875-1.9140625q0.1171875-0.0390625,0.3125-0.13671875q0.1171875-0.0390625,0.1171875-0.15625l0-0.1953125l0-0.1171875q0-0.5859375,0.29296875-0.95703125z M48.666796875,71.66015625l0.52734375-0.3515625l-0.56640625,0.390625l0.0390625-0.0390625q1.38671875-0.95703125,1.8359375-1.38671875q0.078125-0.05859375,0.146484375-0.126953125t0.15625-0.166015625t0.146484375-0.15625q-0.17578125-0.1171875-0.234375-0.1171875q-0.1171875,0-0.37109375,0.15625q-1.66015625,0.8984375-4.47265625,2.75390625q0.234375-0.15625,0.68359375-0.15625q0.05859375,0,0.21484375,0.0390625t0.21484375,0.0390625l0.0390625,0q0.25390625-0.1953125,0.56640625-0.1953125l0.078125,0q0.76171875-0.5078125,0.99609375-0.68359375z M44.584765625,72.5390625q0.17578125,0,0.37109375-0.1953125z M45.385546875,72.4609375l0.37109375-0.234375q-0.29296875,0.1953125-0.37109375,0.234375q0.3515625-0.234375,1.03515625-0.654296875t1.015625-0.654296875q-0.1953125,0.1171875-0.9375,0.56640625t-1.11328125,0.7421875z M46.030078125,70.8203125l0.83984375-0.5078125l-0.87890625,0.5078125l0.0390625,0q0.48828125-0.3125,1.494140625-0.908203125t1.513671875-0.888671875q0.0390625-0.01953125,0.3125-0.205078125t0.546875-0.33203125t0.41015625-0.146484375q0.078125,0,0.1171875,0.0390625q-0.078125-0.3515625-0.078125-1.03515625q-0.546875,0.52734375-1.259765625,1.11328125t-1.25,0.9765625t-1.42578125,1.015625t-1.298828125,0.9375q0.15625-0.1171875,0.5078125-0.322265625t0.41015625-0.244140625z M50.385546875,66.42578125q-0.1953125,0.13671875-0.390625,0.1953125q0.17578125,0,0.234375,0.1171875q0.09765625-0.05859375,0.107421875-0.087890625t0.01953125-0.087890625t0.029296875-0.13671875z M42.866015625,70.7421875l0.078125-0.0390625l-0.078125,0.0390625q0.09765625-0.078125,0.302734375-0.21484375t0.302734375-0.21484375l-0.078125,0q-0.17578125,0-0.3515625,0.126953125t-0.17578125,0.263671875l0,0.0390625z M42.944140625,72.421875q-0.01953125-0.05859375,0.68359375-0.546875t1.3671875-0.927734375t0.91796875-0.595703125q0.87890625-0.68359375,2.71484375-2.05078125q-2.8515625,1.8359375-4.51171875,2.75390625q-0.17578125,0.078125-0.546875,0.263671875t-0.546875,0.263671875q-0.15625,0.05859375-0.15625,0.234375q0,0.05859375,0.0390625,0.234375t0.0390625,0.29296875l0,0.078125z M51.264453125,70.01953125l-0.0390625,0.0390625l0.0390625,0l0-0.0390625q-0.05859375,0.05859375-0.15625,0.185546875t-0.15625,0.185546875q0.13671875-0.13671875,0.44921875-0.29296875q-0.01953125-0.01953125-0.068359375-0.0390625t-0.068359375-0.0390625z M49.916796875,69.66796875l0.234375-0.15625q-0.078125,0.0390625-0.234375,0.15625q0.0390625-0.01953125,0.283203125-0.126953125t0.341796875-0.205078125t0.09765625-0.234375q-0.15625,0.1953125-0.72265625,0.56640625z M50.502734375,65.09765625q-0.48828125,0.29296875-1.4453125,0.8203125t-1.42578125,0.8203125q-1.6796875,0.9765625-1.7578125,1.015625q-0.05859375,0.0390625-0.205078125,0.1171875t-0.205078125,0.1171875q-0.0390625,0.01953125-0.1171875,0.341796875t-0.1171875,0.380859375q2.109375-1.25,3.4375-2.20703125q1.9140625-1.15234375,1.8359375-1.40625z M45.463671875,66.66015625l0.25390625-0.234375l-0.25390625,0.234375q0.859375-0.8203125,2.51953125-2.109375q-0.234375,0.13671875-0.966796875,0.576171875t-1.142578125,0.654296875q-0.0390625,0.01953125-0.185546875,0.087890625t-0.21484375,0.126953125t-0.087890625,0.15625q0.0390625,0.09765625,0.048828125,0.2734375t0.029296875,0.234375z M45.385546875,64.86328125q0-0.0390625,0.15625-0.146484375t0.33203125-0.234375t0.1953125-0.146484375q0.15625-0.1171875,0.537109375-0.390625t0.576171875-0.41015625q-0.13671875,0.05859375-0.439453125,0.25390625t-0.546875,0.3125t-0.478515625,0.15625q-0.17578125,0.0390625-0.224609375,0.107421875t-0.05859375,0.234375t-0.048828125,0.263671875z M48.510546875,60.859375l0.078125-0.0390625l-0.4296875,0.37109375q0.078125-0.09765625,0.3515625-0.33203125q0.46875-0.41015625,1.11328125-0.91796875q-3.49609375,2.05078125-3.828125,2.24609375q-0.05859375,0.0390625-0.13671875,0.078125t-0.107421875,0.048828125t-0.068359375,0.05859375t-0.05859375,0.09765625t-0.0390625,0.146484375q-0.078125,0.234375-0.078125,0.44921875q0,0.29296875,0.078125,0.76171875q0.25390625-0.4296875,1.2890625-1.328125q0.48828125-0.44921875,1.8359375-1.640625z M45.346484375,60.8203125q0.01953125-0.01953125,0.09765625-0.087890625t0.1171875-0.107421875l-0.25390625,0q0,0.1171875,0.0390625,0.1953125z M45.307421875,59.55078125l0,0.1953125q0.41015625-0.46875,0.927734375-1.005859375t0.888671875-0.888671875t1.044921875-0.9765625t0.947265625-0.8984375q-1.23046875,0.5859375-3.0078125,1.77734375q-0.05859375,0.0390625-0.205078125,0.107421875t-0.25390625,0.13671875t-0.234375,0.146484375t-0.1953125,0.166015625t-0.068359375,0.185546875t0.0390625,0.13671875q0.15625,0.390625,0.15625,0.625q0,0.21484375-0.0390625,0.29296875z M47.787890625,54.47265625l-0.0390625,0q-0.078125,0-0.13671875,0.029296875t-0.126953125,0.087890625t-0.126953125,0.078125q0.234375,0,0.234375,0.1171875q0,0.17578125-0.3125,0.48828125q-0.13671875,0.1171875-0.29296875,0.2734375t-0.322265625,0.33203125t-0.263671875,0.2734375q-0.25390625,0.234375-0.712890625,0.703125t-0.693359375,0.72265625q2.1484375-1.34765625,3.203125-1.875q0.3515625-0.1171875,0.390625-0.1171875l0.0390625,0q0.15625,0.05859375,0.15625,0.1171875l0,0.0390625q0.01953125-0.0390625,0.17578125-0.1171875q0.0390625-0.01953125,0.126953125-0.0390625t0.146484375-0.0390625q-0.3125-0.44921875-1.4453125-1.07421875z M37.944140625,59.78515625q0.05859375-0.05859375,0-0.068359375t-0.15625-0.009765625l-0.0390625,0q0.0390625,0.0390625,0.1953125,0.078125l0.146484375-0.09765625t0.13671875-0.09765625t0.09765625-0.107421875t0.068359375-0.146484375q0-0.3515625,0.078125-0.46875q-0.21484375,0.13671875-1.40625,0.83984375t-1.796875,1.07421875q-1.66015625,0.9765625-1.796875,1.03515625q-0.21484375,0.17578125-0.25390625,0.224609375t-0.09765625,0.302734375q0.0390625,0.0390625,0.0390625,0.1171875l0,0.15625q1.62109375-1.25,2.63671875-1.9140625q0.0390625-0.01953125,0.576171875-0.361328125t0.888671875-0.478515625t0.68359375-0.078125z M38.237109375,61.69921875l-0.15625,0.1171875q0.0390625,0,0.09765625-0.048828125t0.05859375-0.068359375q-1.1328125,0.87890625-1.3671875,1.0546875q0.05859375-0.0390625,0.46875-0.263671875t0.64453125-0.419921875t0.25390625-0.37109375z M37.280078125,65.4296875q0.0390625-0.0390625,0.244140625-0.15625t0.400390625-0.224609375t0.1953125-0.146484375q-0.5078125,0.29296875-0.83984375,0.52734375z M38.158984375,63.90625l-0.56640625,0.3125q0.56640625-0.2734375,0.56640625-0.3125q-0.64453125,0.37109375-2.9296875,1.71875q-0.2734375,0.17578125-0.849609375,0.537109375t-0.869140625,0.537109375q-0.0390625,0.0390625-0.17578125,0.1171875t-0.15625,0.09765625t-0.078125,0.09765625t-0.068359375,0.15625t-0.009765625,0.21484375q2.2265625-1.4453125,2.9296875-1.9140625q0.68359375-0.41015625,1.2890625-0.83984375q0.05859375-0.0390625,0.302734375-0.185546875t0.419921875-0.29296875t0.1953125-0.244140625z M29.994921875,56.42578125q0.234375-0.29296875,0.654296875-0.888671875t0.654296875-0.908203125q-0.0390625,0.01953125-0.439453125,0.224609375t-0.64453125,0.390625t-0.263671875,0.341796875q0.0390625,0.1171875,0.0390625,0.390625l0,0.44921875z M29.916796875,54.58984375q0.1171875,0,0.2734375-0.15625l-0.234375-0.09765625l0,0.0390625q0,0.13671875-0.0390625,0.21484375z M32.670703125,57.2265625q0.01953125,0.0390625,0.419921875-0.21484375t0.99609375-0.654296875t1.171875-0.80078125t1.0546875-0.7421875t0.556640625-0.380859375q-0.05859375-0.05859375-0.1953125-0.05859375q-0.1953125,0-0.44921875,0.146484375t-0.56640625,0.390625t-0.390625,0.302734375q-2.05078125,1.4453125-2.75390625,1.85546875z M41.830859375,54.0234375q0-0.01953125-0.01953125-0.068359375t-0.01953125-0.087890625q-0.17578125,0.05859375-0.224609375,0.126953125t-0.048828125,0.224609375t-0.0390625,0.25390625q0.41015625-0.41015625,0.3515625-0.44921875z M41.108203125,56.46484375l0.33203125-0.234375q-0.33203125,0.1953125-0.33203125,0.234375q0.33203125-0.25390625,0.99609375-0.72265625t1.015625-0.72265625q-0.2734375,0.13671875-1.201171875,0.615234375t-1.279296875,0.6640625t-1.19140625,0.634765625t-1.26953125,0.703125t-1.15234375,0.68359375t-1.220703125,0.76171875t-1.083984375,0.76171875t-1.09375,0.859375q0.3125-0.01953125,0.68359375-0.13671875t0.60546875-0.234375t0.6640625-0.3515625t0.56640625-0.3125q1.7578125-1.015625,2.7734375-1.6796875q0.25390625-0.17578125,0.68359375-0.537109375t0.625-0.498046875q0.078125-0.05859375,0.244140625-0.107421875t0.244140625-0.107421875q0.17578125-0.2734375,0.390625-0.2734375z M33.080859375,61.62109375l0.15625-0.078125q-0.1171875,0.078125-0.15625,0.078125q0.68359375-0.37109375,1.03515625-0.64453125q-0.078125,0.01953125-0.478515625,0.048828125t-0.517578125,0.126953125q0,0.3125-0.0390625,0.46875z M33.080859375,58.75l0.078125-0.0390625l-0.078125,0.0390625q0.390625-0.390625,0.830078125-0.78125t1.064453125-0.91796875t0.859375-0.7421875q-1.7578125,1.11328125-2.55859375,1.4453125q-0.05859375,0.0390625-0.146484375,0.068359375t-0.126953125,0.048828125t-0.068359375,0.068359375t-0.029296875,0.126953125q0.078125,0.1953125,0.17578125,0.68359375z M33.158984375,60.3125q-0.01953125-0.078125,0.29296875-0.361328125t0.712890625-0.615234375t0.458984375-0.390625q0.3125-0.25390625,0.9765625-0.791015625t0.99609375-0.810546875q-0.1171875,0.078125-2.24609375,1.328125q-0.17578125,0.09765625-0.556640625,0.3125t-0.556640625,0.3125q-0.1171875,0.05859375-0.1171875,0.29296875q0,0.09765625,0.01953125,0.302734375t0.01953125,0.283203125l0,0.13671875z M39.233203125,56.11328125q0.2734375,0,0.2734375-0.05859375q-0.1953125,0.01953125-0.2734375,0.05859375q0.8203125,0,2.0703125-1.4453125q-0.078125,0.0390625-0.15625,0.0390625q-0.0390625,0-0.087890625-0.01953125t-0.068359375-0.01953125q-0.078125,0-0.1953125,0.1171875q-0.390625,0.37109375-0.72265625,0.52734375q-0.078125,0.0390625-0.17578125,0.068359375t-0.166015625,0.048828125t-0.1171875,0.068359375t-0.068359375,0.126953125q-0.05859375,0.29296875-0.3125,0.48828125z M38.022265625,56.81640625q-0.1171875-0.01953125-0.283203125,0.087890625t-0.361328125,0.29296875t-0.2734375,0.224609375q-0.15625,0.1171875-0.478515625,0.380859375t-0.478515625,0.380859375q-0.95703125,0.8203125-1.640625,1.3671875q1.7578125-1.23046875,4.6484375-2.8515625q-0.09765625,0-0.25390625-0.05859375t-0.234375-0.05859375q-0.0390625,0-0.1953125,0.078125q-0.234375,0.15625-0.44921875,0.15625z M33.998828125,58.41796875q0.390625-0.25390625,1.19140625-0.693359375t1.2109375-0.693359375q0.21484375-0.1171875,0.60546875-0.3515625t0.5078125-0.29296875q0.078125-0.0390625,0.078125-0.15625q0-0.078125-0.0390625-0.1171875q0-0.01953125-0.01953125-0.078125t-0.01953125-0.09765625q0-0.33203125,0.1953125-0.72265625q-2.01171875,1.62109375-3.7109375,3.203125z M32.905078125,68.37890625q0,0.01953125,0.05859375-0.01953125t0.1171875-0.087890625t0.078125-0.048828125q-0.234375,0.1171875-0.25390625,0.15625z M33.080859375,66.38671875q0.78125-0.625,2.333984375-1.89453125t2.333984375-1.875q-0.546875,0.3515625-1.7578125,1.240234375t-1.9140625,1.318359375q-0.78125,0.44921875-0.95703125,0.48828125q-0.13671875,0.078125-0.13671875,0.1953125q0,0.078125,0.048828125,0.263671875t0.048828125,0.263671875z M32.983203125,65.09765625l0.52734375-0.3515625l-0.52734375,0.3515625q0.5859375-0.41015625,1.240234375-0.87890625t1.4453125-1.044921875t1.240234375-0.908203125q-2.1484375,1.30859375-3.359375,1.9140625q-0.48828125,0.25390625-0.52734375,0.25390625q-0.078125,0-0.078125,0.234375q0,0.09765625,0.01953125,0.25390625z M33.022265625,63.7890625l0.05859375,0l-0.05859375,0q0.48828125-0.390625,2.138671875-1.484375t2.431640625-1.8359375q-0.72265625,0.5078125-3.203125,1.9921875q-0.1171875,0.078125-0.419921875,0.21484375t-0.46875,0.234375t-0.322265625,0.302734375t-0.15625,0.458984375l0,0.1171875z M45.229296875,53.828125q-0.1171875,0.1953125-0.1953125,0.2734375q-0.1953125,0.13671875-0.64453125,0.48828125q-0.4296875,0.29296875-1.25,0.8984375t-1.23046875,0.8984375q0.0390625-0.0390625,0.15625-0.0390625q0.09765625,0,0.25390625,0.078125q0.078125-0.0390625,0.3125-0.1953125q0.15625-0.078125,0.458984375-0.244140625t0.458984375-0.244140625q1.15234375-0.68359375,1.9140625-1.11328125q0.1953125-0.13671875,0.625-0.341796875t0.546875-0.263671875q-1.1328125-0.1953125-1.40625-0.1953125z M43.315234375,53.828125q-0.859375,0.4296875-1.07421875,0.72265625q-0.1953125,0.2734375-0.9375,0.99609375q1.6796875-0.8984375,3.3984375-1.7578125q-0.546875,0.078125-0.83984375,0.078125q-0.3515625,0-0.546875-0.0390625z M32.514453125,54.3359375l0.0390625,0l-0.0390625,0q-0.13671875,0-0.263671875-0.0390625t-0.146484375-0.0390625q-0.0390625,0-0.1953125,0.21484375q-0.37109375,0.52734375-0.60546875,0.80078125q-0.44921875,0.64453125-0.91796875,1.23046875q0.21484375,0,0.537109375-0.1953125t0.673828125-0.478515625t0.46875-0.361328125q1.1328125-0.76171875,1.640625-1.03515625q-0.05859375,0-0.146484375-0.068359375t-0.126953125-0.068359375q-0.01953125,0-0.0390625,0.01953125t-0.0390625,0.01953125t-0.05859375,0.01953125t-0.05859375,0.01953125t-0.068359375-0.01953125t-0.087890625-0.01953125l-0.21484375,0l-0.3515625,0z M30.795703125,70.3125l-0.0390625,0.0390625q0,0.078125,0.078125,0.078125q0-0.0390625-0.0390625-0.1171875q-0.09765625,0.078125-0.458984375,0.13671875t-0.419921875,0.33203125q0.078125,0.15625,0.078125,0.48828125q0,0.2734375-0.078125,0.5078125q0.8984375-0.48828125,4.74609375-2.75390625q0.37109375-0.234375,1.30859375-0.78125t1.42578125-0.859375q0.1171875-0.05859375,0.341796875-0.1953125t0.341796875-0.1953125q0.15625-0.09765625,0.15625-0.21484375l0-0.1953125l0-0.1171875q-0.078125-0.234375-0.078125-0.52734375l0-0.1171875q-0.33203125,0.09765625-0.703125,0.263671875t-0.615234375,0.283203125t-0.693359375,0.419921875t-0.56640625,0.380859375t-0.64453125,0.458984375t-0.546875,0.400390625q-0.234375,0.15625-0.7421875,0.498046875t-0.7421875,0.498046875q-0.3125,0.2734375-0.390625,0.83984375q-0.078125,0.2734375-0.33203125,0.2734375q-0.0390625,0-0.1953125-0.078125q-0.25390625,0.3515625-0.390625,0.41015625q-0.17578125,0.1171875-0.33203125,0.1171875q-0.2734375,0-0.46875-0.2734375z M34.233203125,72.5l0.390625-0.234375l-0.390625,0.234375q1.2109375-0.68359375,4.35546875-2.59765625q-0.2734375-0.17578125-0.2734375-0.76171875l0-0.1953125q-0.78125,0.68359375-2.294921875,1.85546875t-2.060546875,1.62109375q0.05859375,0,0.146484375,0.0390625t0.126953125,0.0390625z M38.237109375,67.3828125q-2.75390625,1.9921875-5.44921875,3.92578125q2.16796875-1.19140625,3.69140625-2.12890625q0.9375-0.546875,1.50390625-0.91796875q0.25390625-0.09765625,0.25390625-0.46875l0-0.41015625z M33.823046875,69.98046875q-2.65625,1.5625-3.75,2.16796875q-0.09765625,0.05859375-0.13671875,0.1171875t-0.05859375,0.15625t-0.0390625,0.15625q0.078125,0.0390625,0.1953125,0.0390625q0.15625,0,0.3125-0.078125q0.17578125-0.0390625,0.48828125-0.2734375q1.796875-1.2890625,3.8671875-2.83203125q-0.13671875,0.09765625-0.439453125,0.2734375t-0.439453125,0.2734375z M32.065234375,72.578125l0.0390625-0.0390625l-0.0390625,0.0390625q0.1171875-0.1171875,0.44921875-0.1171875l0.4296875,0q0.37109375,0,0.52734375-0.1171875q0.1953125-0.15625,0.595703125-0.498046875t0.595703125-0.498046875q0.37109375-0.29296875,1.474609375-1.15234375t1.689453125-1.3671875q-1.19140625,0.68359375-3.349609375,1.962890625t-3.037109375,1.787109375q0.1171875-0.0390625,0.3515625-0.0390625q0.1953125,0,0.2734375,0.0390625z M35.229296875,72.4609375q0.234375-0.078125,0.56640625-0.078125l0.078125,0l0.078125,0q0.078125,0,0.166015625-0.048828125t0.185546875-0.13671875t0.13671875-0.126953125q0.3125-0.29296875,0.927734375-0.80078125t0.712890625-0.60546875q-0.33203125,0.1953125-1.357421875,0.80078125t-1.572265625,0.95703125q0.0390625,0.0390625,0.078125,0.0390625z M39.428515625,72.3828125l0.1171875,0l0.29296875,0l0.15625,0q0.17578125-0.52734375,0.3515625-0.99609375q-1.46484375,0.9765625-1.5625,1.03515625l0.13671875,0q0.078125,0,0.244140625-0.01953125t0.263671875-0.01953125z M40.463671875,72.2265625l-0.1171875,0.234375q0.1171875-0.0390625,0.1171875-0.1171875l0-0.1171875z M40.190234375,70.390625l0,0.0390625q0.0390625,0,0.0390625-0.0390625l-0.0390625,0l-0.1171875,0q-0.41015625,0-0.72265625-0.21484375q-0.078125-0.01953125-0.17578125,0.05859375t-0.205078125,0.185546875t-0.146484375,0.126953125q-0.05859375,0.05859375-0.947265625,0.791015625t-1.318359375,1.123046875q0.05859375,0.01953125,0.1953125,0.068359375t0.1953125,0.048828125q0.078125,0,0.234375-0.078125q0.17578125-0.1171875,0.56640625-0.361328125t0.56640625-0.361328125q0.05859375-0.05859375,0.556640625-0.41015625t0.91796875-0.654296875t0.400390625-0.322265625z M38.080859375,65.46875l-0.09765625,0l0.09765625,0z M35.561328125,64.98046875l0.5078125-0.3125l-0.5078125,0.3125q0.2734375-0.15625,0.966796875-0.5859375t1.103515625-0.64453125q0.546875-0.2734375,0.56640625-0.41015625l0-0.078125q0-0.05859375,0.01953125-0.1953125t0.01953125-0.1953125l0-0.1171875q-1.50390625,1.19140625-3.2421875,2.59765625q0.09765625-0.05859375,0.283203125-0.185546875t0.283203125-0.185546875z M38.315234375,60.2734375l0-0.05859375l0,0.05859375q0-0.21484375,0.0390625-0.29296875q-0.0390625,0.01953125-0.05859375,0.087890625t-0.029296875,0.17578125t-0.029296875,0.146484375q-0.13671875,0.1953125-0.64453125,0.625q-0.72265625,0.5859375-3.3203125,2.36328125q0.41015625-0.25390625,1.240234375-0.7421875t1.240234375-0.72265625q0.2734375-0.15625,0.771484375-0.48828125t0.751953125-0.48828125q0-0.5078125,0.0390625-0.6640625z M44.389453125,57.265625l0.0390625,0l-0.0390625,0q0.13671875,0.0390625,0.1953125,0.15625q1.03515625-1.03515625,1.5625-1.6015625q-0.3515625,0.234375-1.044921875,0.654296875t-1.025390625,0.634765625q0.05859375,0.01953125,0.15625,0.078125t0.15625,0.078125z M44.994921875,58.02734375l-0.078125,0.0390625q0.0390625,0,0.078125-0.0390625z M50.033984375,72.6171875l0.0390625,0l-0.0390625,0q0.3125-0.15625,0.52734375-0.15625q0.1171875,0,0.2734375,0.078125q0.1171875-0.1171875,0.4296875-0.5078125q0.17578125-0.234375,0.56640625-0.732421875t0.56640625-0.751953125q-0.09765625-0.0390625-0.41015625,0.15625t-0.703125,0.48828125t-0.41015625,0.3125q-0.37109375,0.25390625-1.640625,1.03515625q0.078125,0.01953125,0.361328125,0.029296875t0.439453125,0.048828125z M52.592578125,72.5l0.0390625,0l-0.0390625,0q0.078125-0.0390625,0.15625-0.1171875q-0.1953125,0-0.1953125,0.078125q0,0.0390625,0.0390625,0.0390625z M51.830859375,72.4609375q0.390625-0.25390625,0.99609375-0.546875q0.078125-0.0390625,0.078125-0.44921875q0-0.64453125-0.078125-0.87890625q-0.390625,0.546875-1.38671875,1.875l0.078125,0l0.234375,0l0.078125,0z M50.307421875,63.26171875q0,0.01953125-1.640625,1.25q-1.11328125,0.8203125-1.71875,1.34765625q-1.0546875,0.9375-1.11328125,0.99609375q-0.09765625,0.078125-0.15625,0.13671875t-0.09765625,0.13671875t-0.048828125,0.1171875t-0.048828125,0.15625l-0.05859375,0.17578125q1.30859375-0.78125,3.2421875-1.875q0.2734375-0.15625,0.830078125-0.478515625t0.849609375-0.478515625q0.15625-0.05859375,0.15625-0.3125q0-0.15625-0.09765625-0.556640625t-0.09765625-0.537109375l0-0.078125z M49.428515625,63.18359375l0.0390625-0.0390625l-0.46875,0.3125q0.1171875-0.078125,0.4296875-0.2734375q0.078125-0.05859375,0.3125-0.1953125t0.361328125-0.25390625t0.166015625-0.2734375l0-0.1953125l0-0.41015625q-0.60546875,0.5078125-2.48046875,1.77734375q-1.03515625,0.64453125-1.6796875,1.19140625q-0.76171875,0.46875-0.76171875,0.80078125q0.6640625-0.33203125,4.08203125-2.44140625z M52.905078125,56.42578125l0.0390625,0l-0.234375,0l0.1953125,0q0.1953125,0.01953125,0.341796875,0.263671875t0.224609375,0.263671875q0.13671875-0.05859375,0.283203125-0.244140625t0.283203125-0.244140625q0.0390625-0.0390625,0.15625-0.0390625q0.05859375,0,0.17578125,0.0390625t0.17578125,0.0390625q0.01953125,0,0.05859375-0.01953125t0.05859375-0.01953125q1.328125-0.78125,1.6015625-0.91796875q0.2734375-0.15625,0.80078125-0.478515625t0.80078125-0.478515625q0.05859375-0.0390625,0.1953125-0.146484375t0.25390625-0.166015625t0.1953125-0.05859375q0.1953125-0.05859375,0.2734375-0.1171875l0.078125-0.0390625q0.0390625,0,0.1171875,0.05859375t0.09765625,0.05859375t0.0390625-0.01953125t0.0390625-0.01953125q-0.078125-0.0390625-0.224609375-0.126953125t-0.244140625-0.13671875t-0.234375-0.087890625t-0.25390625-0.0390625q-0.17578125,0-0.25390625,0.0390625q-0.15625,0.0390625-0.76171875,0.0390625q-0.078125,0-0.25390625,0.0390625t-0.25390625,0.0390625l-0.078125,0q-1.54296875,0.83984375-4.8046875,3.0859375q-3.30078125,2.20703125-4.16015625,2.71484375q-0.15625,0.09765625-0.4296875,0.244140625t-0.439453125,0.244140625t-0.380859375,0.244140625t-0.390625,0.302734375q-0.0390625,0.0390625-0.21484375,0.17578125t-0.283203125,0.263671875t-0.107421875,0.205078125q0.0390625,0.078125,0.0390625,0.2734375l0,0.29296875q0.7421875-0.390625,1.552734375-0.869140625t1.8359375-1.103515625t1.494140625-0.91796875q0.05859375-0.0390625,0.224609375-0.126953125t0.29296875-0.17578125t0.166015625-0.166015625q0-0.21484375,0.1171875-0.33203125q0-0.21484375,0.15625-0.2734375q0.21484375-0.2734375,0.25390625-0.44921875q0.05859375-0.3515625,0.546875-0.7421875t0.83984375-0.37109375z M56.147265625,56.953125l0.0390625,0l-0.0390625,0q0.1171875,0.01953125,0.205078125,0.048828125t0.1171875,0.048828125t0.048828125,0.01953125q0.078125,0,0.234375-0.15625q0.13671875-0.1171875,0.419921875-0.380859375t0.419921875-0.380859375q0.25390625-0.1953125,0.703125-0.60546875t0.703125-0.60546875q-1.7578125,1.09375-3.1640625,1.8359375q0.0390625,0.0390625,0.15625,0.087890625t0.15625,0.087890625z M57.787890625,61.66015625q0-0.05859375,0.341796875-0.29296875t0.7421875-0.498046875t0.439453125-0.283203125q1.66015625-1.30859375,1.71875-1.3671875q0.41015625-0.33203125,1.15234375-0.99609375q0.234375-0.17578125,0.44921875-0.390625q-0.078125-0.15625-0.078125-0.33203125q-1.46484375,0.8203125-3.6328125,2.12890625q-0.15625,0.09765625-0.5078125,0.29296875t-0.5078125,0.29296875q-0.1953125,0.09765625-0.1953125,0.21484375q0,0.0390625,0.01953125,0.126953125t0.01953125,0.146484375l0,0.078125q0.078125,0.390625,0.078125,0.64453125q0,0.15625-0.0390625,0.234375z M61.987109375,59.62890625q-0.5078125,0.25390625-0.5078125,0.3125q0.234375-0.078125,0.5078125-0.3125q-0.87890625,0.4296875-2.63671875,1.5625q-0.09765625,0.05859375-0.41015625,0.224609375t-0.517578125,0.29296875t-0.4296875,0.3125t-0.283203125,0.361328125q0,0.01953125-0.05859375,0.283203125t-0.05859375,0.400390625q0,0.1953125,0.0390625,0.2734375q0.33203125-0.4296875,0.732421875-0.830078125t0.8984375-0.810546875t0.849609375-0.68359375t0.986328125-0.732421875t0.888671875-0.654296875z M57.670703125,66.11328125q0.01953125,0.05859375,1.7578125-1.044921875t2.16796875-1.396484375q-0.37109375,0.21484375-1.044921875,0.60546875t-0.791015625,0.46875q-0.8203125,0.48828125-1.25,0.80078125q-0.80078125,0.390625-0.83984375,0.56640625z M55.385546875,72.5390625l0.0390625,0l-0.0390625,0q0.078125-0.0390625,0.25390625-0.0390625q0.2734375,0,0.5859375,0.078125q0.13671875,0,0.380859375-0.087890625t0.341796875-0.185546875q0.21484375-0.13671875,2.08984375-1.484375q2.16796875-1.640625,2.91015625-2.40234375q-3.28125,2.3046875-5.1171875,3.28125q-0.76171875,0.4296875-1.11328125,0.52734375q-0.0390625,0-0.126953125,0.01953125t-0.126953125,0.01953125q-0.078125,0-0.078125,0.1171875l0,0.1171875l0,0.0390625z M62.514453125,70.859375q-0.64453125,0.390625-3.046875,1.7578125q0.17578125,0.01953125,0.37109375-0.0390625t0.2734375-0.09765625t0.33203125-0.1953125t0.2734375-0.17578125q1.171875-0.703125,1.796875-1.25z M61.030078125,72.3828125l0.0390625-0.0390625q0.05859375-0.0390625,0.078125-0.078125z M61.635546875,72.421875q0.0390625,0,0.09765625-0.048828125t0.05859375-0.068359375q-0.0390625,0.0390625-0.15625,0.1171875q0.1171875,0.0390625,0.234375,0.0390625q0.05859375,0,0.2734375-0.15625q0.234375-0.29296875,0.80078125-0.76171875q-0.21484375,0.13671875-0.64453125,0.439453125t-0.6640625,0.439453125z M63.920703125,72.5390625l0.0390625,0l-0.0390625,0q0.09765625-0.05859375,0.3515625-0.087890625t0.3125-0.107421875q0.17578125-0.17578125,0.48828125-0.56640625q0.0390625-0.0390625,0.21484375-0.205078125t0.283203125-0.2734375t0.21484375-0.2734375t0.126953125-0.283203125q-1.484375,0.859375-2.9296875,1.7578125q0.15625,0,0.46875,0.01953125t0.46875,0.01953125z M96.82578125,63.59375l0.0390625,0.0390625l-0.0390625-0.0390625q0.0390625,0.0390625,0.0390625,0.1171875q0,0.05859375-0.107421875,0.13671875t-0.126953125,0.09765625l0,0.078125q0,0.078125,0.0390625,0.244140625t0.0390625,0.244140625t-0.0390625,0.1171875q-0.01953125,0.21484375-0.185546875,0.5859375t-0.185546875,0.44921875q-0.078125,0.29296875-0.1953125,0.849609375t-0.1953125,0.830078125q0.0390625-0.0390625,0.1171875-0.0390625t0.078125,0.078125q0,0.21484375-0.15625,0.37109375q-0.234375,0.13671875-0.29296875,0.4296875l-0.2734375,0.68359375q-0.01953125,0.05859375-0.01953125,0.15625t-0.01953125,0.17578125t-0.078125,0.13671875q-0.09765625,0.1171875-0.341796875,0.576171875t-0.498046875,0.634765625q-0.2734375,0.1953125-0.72265625,0.64453125q-0.1171875,0.09765625-0.166015625,0.33203125t-0.185546875,0.33203125q-0.13671875,0.13671875-0.44921875,0.21484375q-0.0390625,0.078125-0.1171875,0.21484375t-0.1171875,0.21484375q-0.15625,0.234375-0.56640625,0.64453125q-0.234375,0.1171875-0.46875,0.1171875q-0.21484375,0-0.29296875-0.0390625q-0.09765625-0.0390625-0.185546875-0.1171875t-0.126953125-0.078125t-0.1953125,0.078125q-0.33203125,0.1953125-0.654296875,0.283203125t-0.80078125,0.146484375t-0.712890625,0.09765625q-0.390625,0.0390625-0.76171875,0.234375q-0.17578125,0.1171875-0.3515625,0.1171875q-0.13671875,0-0.29296875-0.078125q-0.078125,0.0390625-0.3125,0.0390625q-0.3125,0-0.41015625-0.1953125q-0.0390625-0.078125-0.5078125-0.078125l-0.33203125,0q-0.09765625,0-0.244140625-0.09765625t-0.263671875-0.1171875q-0.1171875,0-0.33203125-0.068359375t-0.2734375-0.087890625q-0.95703125-0.41015625-1.07421875-0.5078125q-0.13671875-0.01953125-0.517578125-0.283203125t-0.439453125-0.361328125q-0.13671875-0.2734375-0.693359375-0.5859375t-0.712890625-0.625q-0.05859375,0.09765625-0.17578125,0.576171875t-0.3125,0.634765625q0,0.01953125,0.01953125,0.05859375t0.01953125,0.05859375q0,0.29296875-0.205078125,0.60546875t-0.458984375,0.3125q-0.01953125,0-0.05859375-0.01953125t-0.05859375-0.01953125q-1.171875-0.1171875-1.25-0.1171875l-0.1953125,0l-0.48828125,0l-0.234375,0l-0.15625,0q-0.09765625,0-0.2734375,0.05859375t-0.29296875,0.05859375q-0.09765625,0-0.25390625-0.05859375t-0.234375-0.05859375q-0.29296875,0.1953125-0.4296875,0.1953125q-0.09765625,0-0.2734375-0.29296875t-0.17578125-0.4296875l0-0.0390625q-0.0390625-0.078125-0.0390625-0.3515625q0-0.48828125,0.0390625-0.60546875q-0.0390625-0.15625-0.0390625-0.72265625q-0.1171875-0.9375-0.1171875-1.11328125q0-0.33203125,0.0390625-0.44921875q0.0390625-0.15625,0.0390625-0.46875l0-0.41015625q0-0.390625,0.078125-0.546875q-0.01953125,0-0.078125,0.01953125t-0.078125,0.01953125q-0.2734375,0-0.2734375-0.29296875q0-0.1171875,0.1171875-0.234375q0.21484375-0.21484375,0.2734375-0.302734375t0.078125-0.341796875q-0.078125-0.234375-0.078125-0.5078125q-0.01953125-0.0390625-0.146484375-0.126953125t-0.126953125-0.205078125q0.01953125-0.078125,0.1171875-0.205078125t0.1171875-0.185546875q0-0.859375,0.1171875-1.09375q-0.0390625-0.1171875-0.0390625-0.46875q0-0.37109375,0.0390625-0.48828125q-0.0390625-0.1171875-0.0390625-0.4296875q0-0.15625,0.01953125-0.498046875t0.01953125-0.498046875l0-0.25390625q-0.15625,0.078125-0.1953125,0.078125q-0.1953125,0-0.1953125-0.1953125q0.01953125-0.1171875,0.166015625-0.2734375t0.146484375-0.25390625q-0.1171875-0.29296875-0.1171875-0.7421875q0-0.29296875,0.0390625-0.41015625q0-0.41015625,0.107421875-1.23046875t0.107421875-1.2109375q-0.17578125-0.52734375-0.17578125-0.87890625l0-0.1171875q-0.078125-0.15625-0.078125-0.3125q0-0.33203125,0.1171875-0.44921875l0-0.15625q0-0.33203125,0.0390625-0.41015625q0.09765625-0.29296875,0.09765625-0.3515625q0-0.3125-0.13671875-0.52734375q-0.078125-0.1171875-0.078125-0.46875q0-0.15625,0.01953125-0.4296875t0.01953125-0.37109375q0.01953125-0.13671875,0.21484375-0.91796875q-0.09765625-0.48828125-0.09765625-0.76171875l0-0.25390625q-0.01953125-0.13671875-0.09765625-0.419921875t-0.09765625-0.419921875q-0.1171875-0.234375-0.1171875-0.390625q-0.01953125-0.0390625-0.13671875-0.068359375t-0.13671875-0.048828125q-0.17578125-0.1171875-0.41015625-0.234375q-0.05859375,0-0.15625,0.01953125t-0.15625,0.01953125q-0.1171875,0-0.15625-0.0390625q-0.17578125,0.1171875-0.41015625,0.1171875q-0.1171875,0-0.3515625-0.078125q-0.234375,0.078125-0.37109375,0.078125q-0.1171875,0-0.3515625-0.078125q-0.3125-0.09765625-0.3125-1.171875q0-0.72265625,0.1171875-0.95703125q-0.390625,0.1953125-0.44921875,0.1953125q-0.15625,0-0.15625-0.1953125q0-0.078125,0.09765625-0.205078125t0.244140625-0.25390625t0.185546875-0.185546875q0.05859375-0.078125,0.087890625-0.107421875t0.0390625-0.068359375t0.009765625-0.048828125t0.009765625-0.078125t0.009765625-0.126953125q0-0.0390625-0.01953125-0.126953125t-0.01953125-0.126953125q0-0.8203125,0.87890625-0.87890625q0.01953125,0,0.05859375-0.01953125t0.05859375-0.01953125q0.078125,0,0.15625,0.078125q0.1171875-0.1171875,0.1953125-0.1171875q0.078125-0.0390625,0.25390625-0.0390625q0.05859375,0,0.21484375,0.01953125t0.21484375,0.01953125l0.078125,0q0.078125,0,0.283203125,0.05859375t0.283203125,0.05859375q0.17578125,0.01953125,0.791015625,0.078125t0.966796875,0.05859375q0.234375-0.0390625,0.76171875-0.0390625l0.3125,0q0.13671875,0,0.439453125-0.068359375t0.439453125-0.068359375q0.17578125,0,0.25390625,0.0390625q0.09765625-0.15625,0.2734375-0.15625q0.15625,0,0.234375,0.078125q0.234375-0.15625,0.41015625-0.15625q0.15625,0,0.1953125,0.0390625q0.13671875,0.0390625,0.400390625,0.048828125t0.361328125,0.029296875q0.01953125,0,0.068359375-0.01953125t0.087890625-0.01953125q0.44921875,0,0.76171875,0.15625q0.17578125,0.01953125,0.3125,0.185546875t0.13671875,0.341796875q0.0390625,0.078125,0.0390625,0.3125q0,0.17578125-0.068359375,0.546875t-0.068359375,0.546875q0,0.0390625,0.029296875,0.1171875t0.029296875,0.1171875q0.05859375-0.01953125,0.185546875-0.107421875t0.166015625-0.087890625q0.0390625-0.0390625,0.1171875-0.0390625q0.1953125,0,0.1953125,0.1953125q0,0.078125-0.078125,0.15625q-0.078125,0.05859375-0.205078125,0.13671875t-0.166015625,0.107421875t-0.09765625,0.107421875t-0.068359375,0.15625t-0.009765625,0.21484375q0,0.3125-0.068359375,0.927734375t-0.068359375,0.947265625q0.3515625-0.1171875,0.37109375-0.1171875q0.1953125,0,0.1953125,0.234375l0,0.09765625q0,0.15625-0.234375,0.41015625t-0.234375,0.390625q0.1171875,0.41015625,0.1171875,1.15234375q0.0390625-0.0390625,0.1171875-0.0390625q0.15625,0,0.15625,0.234375q0,0.1171875-0.078125,0.1953125t-0.107421875,0.13671875t-0.0390625,0.087890625t-0.01953125,0.078125t-0.029296875,0.107421875l0,0.15625l0,0.3125q0.0390625,0.078125,0.0390625,0.29296875q0,0.234375-0.0390625,0.3125q0.078125-0.078125,0.15625-0.078125q0.2734375,0,0.46875,0.37109375q0.01953125,0,0.068359375-0.029296875t0.068359375-0.029296875q0.234375,0,0.3125,0.29296875q0.01953125,0.1171875-0.0390625,0.205078125t-0.166015625,0.185546875t-0.146484375,0.15625q0.5859375-0.33203125,1.728515625-0.966796875t1.708984375-0.947265625l-0.078125,0q-0.05859375,0-0.234375,0.05859375t-0.25390625,0.05859375q-0.21484375,0-0.2734375-0.2734375q-0.21484375,0.15625-0.693359375,0.41015625t-0.556640625,0.3125q-0.0390625,0.01953125-0.244140625,0.13671875t-0.4296875,0.224609375t-0.361328125,0.107421875q-0.234375,0-0.234375-0.2734375q0-0.17578125,0.3125-0.80078125q0.25390625-0.703125,0.64453125-0.83984375q0.01953125,0,0.078125-0.01953125t0.078125-0.01953125q0.1953125,0,0.46875,0.205078125t0.33203125,0.205078125l0.0390625,0q0.25390625-0.17578125,0.390625-0.17578125q0.234375,0,0.29296875,0.25390625q0.64453125-0.64453125,1.07421875-0.60546875q0.09765625,0,0.56640625,0.1171875q0.078125-0.078125,0.2734375-0.078125q0.01953125,0,0.078125,0.01953125t0.078125,0.01953125q0.1171875,0.0390625,0.41015625,0.0390625q0.1171875,0,0.341796875-0.01953125t0.341796875-0.01953125q0.1953125,0,0.5078125,0.078125q0.13671875-0.01953125,0.44921875,0.09765625t0.390625,0.13671875q0.13671875,0.01953125,0.380859375-0.048828125t0.341796875-0.068359375q0.21484375,0,0.37109375,0.15625q0.1171875,0.1171875,0.1171875,0.25390625q0,0.078125-0.0390625,0.1171875l0.234375,0.1171875q0.0390625,0,0.09765625-0.0390625t0.09765625-0.0390625q0.05859375,0,0.1171875,0.1171875t0.33203125,0.283203125t0.3515625,0.283203125q0.17578125,0.05859375,0.439453125,0.2734375t0.361328125,0.37109375q0.078125,0.078125,0.1171875,0.078125q0.05859375,0,0.166015625-0.068359375t0.166015625-0.068359375q0.0390625,0,0.1171875,0.13671875q0.0390625,0.0390625,0.0390625,0.15625q0,0.05859375-0.05859375,0.185546875t-0.05859375,0.205078125l0,0.078125q0.0390625,0.05859375,0.1171875,0.185546875t0.1171875,0.185546875q1.03515625,1.3671875,1.07421875,2.24609375q0.21484375-0.21484375,0.41015625-0.21484375q0.1171875,0,0.1953125,0.21484375q0.01953125,0.15625-0.224609375,0.37109375t-0.224609375,0.33203125q0.46875-0.234375,0.56640625-0.234375q0.1953125,0.05859375,0.1953125,0.1953125q0,0.1171875-0.1171875,0.17578125q-0.01953125,0.0390625-0.224609375,0.1953125t-0.205078125,0.1953125q0,0.01953125,0.0390625,0.107421875t0.0390625,0.126953125q0.3125,0.546875,0.3125,1.3671875l0,0.1171875q0.1171875,0.234375,0.1171875,0.64453125l0,0.1171875q0.0390625,0.09765625,0.048828125,0.25390625t0.048828125,0.25390625t0.15625,0.13671875t0.1171875,0.15625q0,0.0390625-0.107421875,0.25390625t-0.107421875,0.3125l0,0.078125q0.09765625,0.1953125,0.09765625,0.4296875l0,0.078125q0.01953125,0.0390625,0.09765625,0.087890625t0.09765625,0.087890625z M84.30625,53.26171875l0.078125-0.078125l-0.078125,0.078125q0.05859375-0.0390625,0.15625-0.09765625t0.15625-0.09765625q-0.0390625-0.0390625-0.1171875-0.0390625q-0.1171875,0-0.1953125,0.234375z M88.81796875,71.34765625l0.41015625-0.234375l-0.68359375,0.4296875q0.078125-0.078125,0.2734375-0.1953125q1.1328125-0.703125,3.73046875-2.55859375q-0.078125,0.0390625-0.693359375,0.361328125t-0.76171875,0.400390625t-0.693359375,0.37109375t-0.76171875,0.419921875t-0.68359375,0.400390625t-0.732421875,0.458984375t-0.64453125,0.439453125t-0.68359375,0.5078125t-0.595703125,0.5078125q0.33203125,0.0390625,1.07421875-0.4296875q0.5859375-0.33203125,1.4453125-0.87890625z M85.86875,72.578125l0.15625-0.15625q-0.1953125,0.1171875-0.1953125,0.15625l0.0390625,0z M83.38828125,71.62109375l0.15625-0.1171875q-0.15625,0.078125-0.15625,0.1171875q0.390625-0.2734375,1.064453125-0.80078125t0.966796875-0.72265625q-0.1171875-0.078125-0.234375-0.078125l-0.2734375,0q-0.3125,0-0.41015625-0.15625q-0.1953125,0.29296875-0.72265625,0.99609375q-0.4296875,0.56640625-0.4296875,0.68359375q0,0.0390625,0.0390625,0.078125z M81.59140625,69.86328125l0.1953125-0.1171875q-0.0390625,0-0.1171875,0.048828125t-0.078125,0.068359375q0.33203125-0.1953125,0.87890625-0.5859375t0.703125-0.48828125q-0.09765625-0.09765625-0.205078125-0.25390625t-0.234375-0.341796875t-0.185546875-0.283203125q-1.6796875,1.42578125-3.3984375,2.87109375q0.99609375-0.60546875,1.19140625-0.68359375q0.1171875-0.0390625,0.205078125-0.263671875t0.205078125-0.283203125q0.3515625-0.17578125,0.390625-0.17578125q0.21484375,0,0.3125,0.25390625q0.01953125,0.0390625,0.068359375,0.1171875t0.068359375,0.1171875z M76.98203125,72.0703125q0.60546875-0.46875,0.60546875-0.52734375q-0.0390625,0.0390625-0.107421875,0.087890625t-0.205078125,0.15625t-0.224609375,0.185546875t-0.068359375,0.09765625q1.484375-1.19140625,4.08203125-3.3984375q-1.9921875,1.30859375-3.1640625,1.953125q-0.99609375,0.56640625-1.3671875,0.52734375q0,0.078125,0.029296875,0.283203125t0.029296875,0.302734375l0,0.17578125q0,0.05859375,0.0390625,0.09765625t0.09765625,0.0390625l0.13671875,0t0.1171875,0.01953125z M76.5328125,66.19140625q0,0.05859375,0.322265625-0.1953125t0.439453125-0.37109375q0.48828125-0.37109375,1.09375-0.91796875q1.26953125-1.0546875,2.0703125-1.6796875q-1.6015625,0.9375-2.44140625,1.484375q-0.3125,0.15625-0.859375,0.498046875t-0.6640625,0.419921875q0.0390625,0.234375,0.0390625,0.76171875z M76.63046875,62.4609375l0-0.0390625l0,0.0390625l0,0.078125q0.546875-0.546875,2.44140625-1.9140625q-1.50390625,1.07421875-2.12890625,1.07421875q-0.25390625,0-0.3515625-0.15625q0,0.09765625,0.0390625,0.341796875t0.0390625,0.341796875q0,0.15625-0.0390625,0.234375z M76.66953125,52.0703125l0.078125-0.078125q-0.078125,0.0390625-0.078125,0.078125q0.48828125-0.5078125,1.03515625-0.9765625t1.4453125-1.162109375t1.11328125-0.869140625q-0.390625,0.21484375-1.15234375,0.654296875t-1.1328125,0.673828125q-0.1953125,0.1171875-0.595703125,0.361328125t-0.595703125,0.361328125q-0.15625,0.09765625-0.15625,0.3125q0,0.078125,0.01953125,0.263671875t0.01953125,0.263671875l0,0.1171875z M76.5328125,50.625l0.09765625-0.078125q-0.09765625,0.0390625-0.09765625,0.078125q0.41015625-0.4296875,0.849609375-0.830078125t1.2109375-1.025390625t0.908203125-0.7421875q-1.1328125,0.7421875-2.44140625,1.4453125q-0.546875,0.2734375-0.80078125,0.2734375q0.01953125,0.17578125,0.13671875,0.498046875t0.13671875,0.380859375z M81.49375,50.9765625l-0.546875,0.33203125l0.546875-0.33203125q-1.03515625,0.60546875-3.02734375,1.81640625q-1.46484375,0.859375-1.5625,0.91796875q-0.37109375,0.21484375-0.37109375,0.3515625q0,0.05859375,0.0390625,0.224609375t0.05859375,0.224609375q2.16796875-1.69921875,3.3984375-2.40234375l0.439453125-0.17578125t0.546875-0.234375t0.37109375-0.29296875t0.107421875-0.4296875z M76.5328125,56.85546875l0.52734375-0.3515625l-0.52734375,0.3515625q2.16796875-1.484375,3.80859375-2.75390625q-1.62109375,1.03515625-3.2421875,1.9140625q-0.0390625,0.01953125-0.263671875,0.126953125t-0.341796875,0.126953125q-0.0390625,0-0.0390625,0.1171875q0,0.390625,0.078125,0.46875z M76.5328125,55.5859375l0.05859375-0.0390625q-0.01953125,0-0.05859375,0.0390625q0.5078125-0.390625,1.484375-1.044921875t1.3671875-0.947265625q0.09765625-0.05859375,0.44921875-0.29296875t0.52734375-0.361328125t0.419921875-0.3515625t0.361328125-0.439453125q-0.078125-0.01953125-0.21484375,0.068359375t-0.29296875,0.21484375t-0.21484375,0.146484375q-0.1171875,0.09765625-0.76171875,0.52734375q-1.171875,0.78125-1.6015625,1.03515625q-0.87890625,0.52734375-1.19140625,0.68359375q-0.13671875,0.09765625-0.185546875,0.21484375t-0.068359375,0.2734375t-0.078125,0.2734375z M76.66953125,58.06640625l0.0390625,0q0.05859375,0,0.185546875-0.107421875t0.263671875-0.234375t0.17578125-0.146484375q0.7421875-0.64453125,1.6015625-1.26953125q0.87890625-0.7421875,2.32421875-1.8359375q-0.625,0.390625-1.748046875,1.171875t-1.455078125,1.015625q-0.8203125,0.546875-1.11328125,0.72265625q-0.15625,0.078125-0.205078125,0.15625t-0.048828125,0.244140625t-0.01953125,0.283203125z M79.1109375,56.77734375l0.4296875-0.234375l-0.4296875,0.234375q1.23046875-0.76171875,1.7578125-1.03515625q0.390625-0.234375,0.625-0.3515625q-0.0390625-0.0390625-0.0390625-0.25390625q0-0.2734375,0.078125-0.4296875q-0.5078125,0.41015625-1.533203125,1.23046875t-1.533203125,1.25q0.1171875-0.09765625,0.64453125-0.41015625z M81.66953125,53.59375q-0.17578125,0.1171875-0.17578125,0.15625q0.13671875-0.1171875,0.17578125-0.15625q-0.234375,0.15625-0.64453125,0.478515625t-0.64453125,0.478515625q0.05859375-0.0390625,0.33203125-0.185546875t0.419921875-0.244140625t0.3125-0.244140625t0.224609375-0.283203125z M76.59140625,59.140625l0.703125-0.4296875l-0.703125,0.4296875q2.20703125-1.34765625,4.94140625-3.28125l-0.0390625-0.0390625q-0.72265625,0.390625-3.02734375,1.796875q-0.25390625,0.15625-0.76171875,0.48828125t-0.76171875,0.48828125q-0.3515625,0.17578125-0.3515625,0.4296875l0,0.1171875z M78.0953125,58.75q-0.078125,0.078125-0.1171875,0.078125q1.6015625-0.91796875,4.8046875-2.763671875t4.8046875-2.763671875q-0.078125-0.0390625-0.390625,0.146484375t-0.6640625,0.41015625t-0.390625,0.244140625q-0.546875,0.3125-1.62109375,0.927734375t-1.62109375,0.947265625q-0.80078125,0.44921875-2.40234375,1.376953125t-2.40234375,1.396484375z M91.90390625,54.1796875q-0.15625-0.01953125-0.390625,0.13671875t-0.537109375,0.419921875t-0.361328125,0.322265625q-0.46875,0.3515625-1.875,1.328125q0.8203125-0.4296875,2.59765625-1.71875q0.01953125,0,0.146484375-0.107421875t0.283203125-0.185546875t0.25390625-0.078125q0.15625,0,0.15625,0.21484375q0.01953125-0.01953125,0.05859375-0.0390625t0.05859375-0.0390625q-0.078125-0.01953125-0.1953125-0.126953125t-0.1953125-0.126953125z M93.42734375,55.5859375l-0.1171875,0.078125l0.1171875-0.078125q-0.1171875,0.05859375-0.341796875,0.185546875t-0.3515625,0.21484375t-0.302734375,0.21484375t-0.29296875,0.263671875q-0.8984375,1.015625-0.91796875,1.03515625t-0.244140625,0.234375t-0.419921875,0.41015625t-0.419921875,0.439453125t-0.3515625,0.4296875t-0.087890625,0.244140625q0.3125-0.1171875,0.625-0.29296875t0.7421875-0.439453125t0.56640625-0.341796875q0.0390625-0.01953125,0.37109375-0.21484375t0.654296875-0.400390625t0.673828125-0.4296875t0.556640625-0.400390625t0.185546875-0.234375q-0.234375-0.1953125-0.64453125-0.91796875z M90.14609375,61.0546875l-0.0390625-0.078125l0.0390625,0.078125q0-0.01953125-0.01953125-0.05859375t-0.01953125-0.05859375q0-0.1171875,0.13671875-0.3125t0.302734375-0.341796875t0.361328125-0.322265625t0.234375-0.21484375q1.015625-1.09375,2.0703125-2.12890625q-0.2734375,0.17578125-0.78125,0.517578125t-0.830078125,0.546875t-0.78125,0.46875t-0.869140625,0.439453125q-0.13671875,0.05859375-0.13671875,0.1953125q0,0.078125,0.01953125,0.166015625t0.05859375,0.1953125t0.05859375,0.166015625q0.0390625,0.17578125,0.09765625,0.537109375t0.09765625,0.537109375q0.21484375-0.17578125,1.4453125-0.95703125q-0.95703125,0.72265625-1.328125,0.72265625q-0.01953125,0-0.1171875-0.09765625z M94.4234375,61.81640625q-0.56640625,0.33203125-1.748046875,1.015625t-1.767578125,1.03515625q-0.25390625,0.09765625-0.60546875,0.3125q-0.01953125,0.01953125-0.068359375,0.3515625t-0.048828125,0.41015625q-0.3125,0.6640625-0.44921875,2.08984375q0.390625-0.3515625,0.83984375-0.703125t1.11328125-0.83984375t0.8984375-0.6640625q-0.3515625,0.234375-1.09375,0.654296875t-1.11328125,0.634765625q-0.15625,0.078125-0.3125,0.078125q-0.21484375,0-0.21484375-0.13671875q0-0.01953125,0.13671875-0.15625q0.09765625-0.09765625,0.29296875-0.2734375t0.29296875-0.2734375q0.64453125-0.5859375,1.923828125-1.77734375t1.923828125-1.7578125z M95.45859375,61.38671875q-1.38671875,1.23046875-3.96484375,3.6328125q0.46875-0.29296875,1.435546875-0.849609375t1.455078125-0.830078125q0.1953125-0.1171875,0.595703125-0.341796875t0.595703125-0.341796875q0.078125-0.078125,0.078125-0.234375q0-0.44921875-0.1953125-1.03515625z M90.26328125,63.06640625l0.234375-0.1953125l-0.234375,0.1953125q1.8359375-1.6015625,4.23828125-3.515625q-1.6015625,0.91796875-3.1640625,1.875q-0.05859375,0.0390625-0.41015625,0.244140625t-0.5078125,0.322265625q-0.15625,0.078125-0.15625,0.1953125t-0.0390625,0.234375q0.0390625,0.078125,0.0390625,0.234375l0,0.29296875l0,0.1171875z M89.4625,58.8671875l0.15625-0.15625l-0.15625,0.15625q0.7421875-0.87890625,1.9140625-2.12890625q-0.33203125,0.15625-0.966796875,0.478515625t-0.947265625,0.478515625q-0.15625,0.05859375-0.361328125,0.09765625t-0.283203125,0.078125q0.13671875,0.09765625,0.244140625,0.2734375t0.224609375,0.400390625t0.17578125,0.322265625z M88.50546875,57.5390625l0.3125-0.234375l-0.3125,0.234375q0.5078125-0.4296875,2.24609375-1.71875q-0.48828125,0.3125-1.38671875,0.80078125t-1.15234375,0.64453125q0.234375,0.234375,0.29296875,0.2734375z M91.3375,53.9453125q-0.05859375-0.01953125-0.1953125,0.05859375t-0.29296875,0.17578125t-0.1953125,0.1171875q-0.9765625,0.625-1.46484375,0.87890625q-0.37109375,0.1953125-1.09375,0.625t-1.07421875,0.625q0.13671875,0.078125,0.419921875,0.21484375t0.419921875,0.21484375q0-0.01953125-0.01953125-0.05859375t-0.01953125-0.05859375q0-0.13671875,0.1953125-0.322265625t0.5078125-0.380859375t0.33203125-0.21484375q0.1171875-0.078125,0.732421875-0.537109375t1.19140625-0.8984375t0.556640625-0.439453125z M76.4546875,70.46875l0.078125-0.078125q-0.078125,0-0.078125,0.078125q0.4296875-0.5859375,1.484375-1.3671875q-0.1171875,0.05859375-0.458984375,0.234375t-0.5859375,0.283203125t-0.478515625,0.166015625q0,0.01953125-0.01953125,0.078125t-0.01953125,0.078125q0,0.078125,0.0390625,0.25390625t0.0390625,0.2734375z M79.91171875,68.02734375l-0.8984375,0.68359375q1.015625-0.72265625,1.015625-0.76171875q-0.0390625,0.0390625-0.1171875,0.078125q-0.234375,0.17578125-0.80078125,0.595703125t-0.908203125,0.673828125t-0.76171875,0.6640625t-0.693359375,0.78125q0.44921875-0.1171875,0.9765625-0.380859375t0.87890625-0.48828125t0.947265625-0.634765625t0.830078125-0.56640625q0.41015625-0.25390625,1.1328125-0.732421875t0.6640625-0.556640625q-0.2734375-0.41015625-0.2734375-0.76171875l0-0.078125q-0.56640625,0.41015625-1.9921875,1.484375z M79.7359375,67.5l0.17578125-0.078125l-0.80078125,0.52734375q0.13671875-0.13671875,0.625-0.44921875q0.44921875-0.25390625,1.40625-0.91796875l0.205078125-0.13671875t0.224609375-0.146484375t0.15625-0.146484375t0.09765625-0.21484375q-0.0390625-0.15625-0.1171875-0.478515625t-0.1171875-0.478515625q-1.03515625,0.87890625-2.40234375,1.796875q-1.23046875,0.91796875-1.5625,1.1328125q-0.05859375,0.0390625-0.380859375,0.244140625t-0.517578125,0.380859375t-0.234375,0.33203125q0.2734375-0.09765625,0.712890625-0.41015625t0.498046875-0.3515625q1.15234375-0.7421875,1.8359375-1.25q0.05859375-0.0390625,0.78125-0.60546875t1.1328125-0.6640625l0.078125,0q0.25390625,0,0.25390625,0.1953125l0,0.0390625q-0.0390625,0.09765625-0.166015625,0.205078125t-0.302734375,0.1953125t-0.21484375,0.126953125q-0.29296875,0.17578125-1.71875,1.15234375q-0.4296875,0.29296875-1.357421875,0.869140625t-1.396484375,0.927734375q1.09375-0.44921875,3.10546875-1.796875z M76.59140625,66.77734375l0.15625-0.1171875l-0.15625,0.1171875q2.75390625-1.7578125,3.6328125-2.3046875q0.46875-0.3125,1.15234375-0.72265625q0-0.05859375-0.01953125-0.234375t-0.01953125-0.25390625q0-0.15625,0.0390625-0.234375q0.01953125-0.05859375,0.05859375-0.1171875l0.05859375-0.087890625t0.029296875-0.087890625t0.009765625-0.1171875l-1.40625,1.171875t-1.42578125,1.19140625q-0.52734375,0.37109375-1.26953125,1.03515625q-0.05859375,0.05859375-0.283203125,0.21484375t-0.390625,0.3125t-0.166015625,0.234375z M80.22421875,59.82421875l0.52734375-0.3125q-0.17578125,0.078125-0.52734375,0.3125q0.25390625-0.15625,1.40625-0.87890625q0.7421875-0.41015625,0.91796875-0.72265625q-0.83984375,0.625-2.32421875,1.6015625z M84.3453125,56.46484375q0.078125,0,0.078125-0.0390625q-0.0390625,0.0390625-0.078125,0.0390625z M89.98984375,53.49609375q-0.09765625,0-0.72265625,0.37109375q-0.37109375,0.15625-1.09375,0.56640625q-1.015625,0.546875-2.59765625,1.6796875q0.234375,0,0.29296875,0.1953125q0.1953125-0.15625,0.595703125-0.33203125t0.556640625-0.2734375q1.1328125-0.68359375,1.2890625-0.76171875q1.71875-1.07421875,2.109375-1.34765625q-0.29296875-0.09765625-0.4296875-0.09765625z M81.94296875,57.34375q-0.0390625,0.01953125,0.400390625-0.2734375t0.908203125-0.5859375l0.44921875-0.29296875q-0.4296875,0.2734375-1.7578125,1.15234375l-0.3515625,0.234375q1.34765625-0.78125,3.876953125-2.1875t3.544921875-1.97265625l-0.1171875,0q-0.29296875,0-0.83984375,0.33203125q-0.33203125,0.13671875-1.38671875,0.68359375q-1.9140625,1.07421875-4.7265625,2.91015625z M83.42734375,56.9921875l-0.80078125,0.4296875l0.80078125-0.4296875q-2.96875,1.6796875-4.4140625,2.63671875q-0.0390625,0.01953125-0.498046875,0.29296875t-0.68359375,0.419921875t-0.517578125,0.4296875t-0.37109375,0.537109375q0.21484375,0,0.76171875-0.33203125q0.56640625-0.3125,1.875-1.15234375q0.625-0.41015625,2.36328125-1.640625q0.25390625-0.15625,0.68359375-0.48828125t0.5859375-0.4296875q0.76171875-0.4296875,0.8984375-0.64453125q-0.1171875,0.05859375-0.341796875,0.185546875t-0.341796875,0.185546875z M76.63046875,63.14453125l0.0390625-0.078125q0,0.0390625-0.0390625,0.078125l0,0.078125q1.15234375-0.68359375,3.18359375-1.8359375q0.3125-0.17578125,0.888671875-0.517578125t0.888671875-0.517578125q0.21484375-0.09765625,0.2734375-0.2734375t0.05859375-0.44921875t0.05859375-0.44921875q-2.4609375,1.6015625-3.3203125,2.20703125q-1.5625,1.11328125-2.03125,1.7578125z M81.70859375,60.9765625l0-0.1171875q-3.84765625,3.2421875-3.96484375,3.3203125q2.24609375-1.34765625,3.28125-1.875q0.4296875-0.21484375,0.5078125-0.234375q0-0.01953125-0.01953125-0.09765625t-0.01953125-0.1171875q0-0.234375,0.21484375-0.87890625z M78.31015625,66.26953125l-0.33203125,0.1953125l0.33203125-0.1953125q-0.2734375,0.15625-0.791015625,0.478515625t-0.771484375,0.478515625q-0.21484375,0.1171875-0.21484375,0.76171875l0,0.234375q0.52734375-0.41015625,1.533203125-1.11328125t1.396484375-0.99609375q0.1171875-0.078125,1.6015625-1.171875q0.234375-0.21484375,0.29296875-0.302734375t0.05859375-0.263671875l0-0.1953125q-0.09765625,0.05859375-0.283203125,0.29296875t-0.302734375,0.3125q-0.25390625,0.17578125-2.51953125,1.484375z M83.46640625,69.140625l-0.0390625,0.0390625l0.0390625,0l0-0.0390625q-0.29296875,0.4296875-0.48828125,0.68359375q0.1171875-0.078125,0.380859375-0.244140625t0.380859375-0.244140625q-0.15625-0.078125-0.2734375-0.1953125z M84.540625,68.828125l0.078125,0.0390625q0.0390625,0,0.1171875-0.01953125t0.1171875-0.01953125q0.1171875,0,0.17578125,0.1171875q0.0390625,0.05859375,0.05859375,0.09765625q0,0.01953125,0.01953125,0.01953125l0.15625,0l0.2734375,0q0.21484375,0,0.33203125,0.1171875q0.078125-0.0390625,0.234375-0.1953125q0.3515625-0.1171875,0.4296875-0.1171875q0.13671875,0,0.17578125,0.0390625q0.234375,0.1171875,0.2734375,0.1171875q0.01953125,0,0.029296875-0.01953125t0.068359375-0.068359375t0.13671875-0.107421875q0.05859375-0.0390625,0.185546875-0.09765625t0.185546875-0.09765625q0.05859375-0.09765625,0.1953125-0.17578125q-0.0390625-0.078125-0.0390625-0.1953125t0.0390625-0.15625q0.0390625-0.1171875,0.17578125-0.283203125t0.21484375-0.205078125q0.15625-0.13671875,0.1953125-0.21484375q0.01953125-0.09765625,0.05859375-0.17578125q0.1953125-0.4296875,0.4296875-0.80078125q0.01953125-0.05859375,0.25390625-1.5625q-0.078125,0.078125-0.21484375,0.078125q-0.1171875,0-0.1171875-0.1953125t0.1171875-0.37109375q0.078125-0.078125,0.244140625-0.25390625t0.244140625-0.25390625l0-0.1953125l0-0.13671875q-0.078125-0.1953125-0.078125-0.703125q0-0.64453125,0.0390625-0.91796875q-0.29296875-2.05078125-0.60546875-2.578125q-0.15625-0.2734375-0.283203125-0.458984375t-0.37109375-0.52734375t-0.44921875-0.48828125t-0.341796875-0.068359375l-0.078125,0q-0.1953125,0-0.1953125-0.21484375q0-0.078125,0.0390625-0.1171875q-0.05859375-0.0390625-0.21484375-0.09765625t-0.21484375-0.09765625q-0.44921875-0.1953125-0.64453125-0.1953125q-0.17578125,0-0.29296875,0.0390625q-0.0390625,0.0390625-0.3515625,0.0390625q-0.1953125,0.09765625-0.1953125,0.234375l0,0.1953125l0,0.17578125q-0.05859375,0.2734375-0.29296875,0.2734375q-0.33203125,0-0.46875-0.2734375q-0.09765625,0.05859375-0.283203125,0.29296875t-0.361328125,0.29296875q-0.078125,0.078125-0.17578125,0.244140625t-0.17578125,0.244140625q-0.29296875,0.29296875-0.48828125,0.87890625q-0.09765625,0.2734375-0.185546875,0.966796875t-0.205078125,0.986328125q0,0.17578125-0.0390625,0.25390625q-0.0390625,0.0390625-0.0390625,0.15625q0,0.0390625,0.01953125,0.126953125t0.01953125,0.146484375q0,0.0390625-0.01953125,0.21484375t-0.01953125,0.1953125q0.0390625,0.09765625,0.048828125,0.33203125t0.029296875,0.29296875q0.1953125,0.05859375,0.1953125,0.29296875q0,0.1171875-0.0390625,0.15625q-0.01953125,0.05859375-0.15625,0.244140625t-0.13671875,0.302734375l0,0.09765625q0.09765625,0.29296875,0.09765625,0.3125q0.0390625,0.1171875,0.09765625,0.380859375t0.09765625,0.380859375q0.17578125-0.1171875,0.2734375-0.1171875q0.15625,0,0.15625,0.1171875q0,0.13671875-0.1953125,0.2734375q-0.15625,0.09765625-0.15625,0.29296875q0,0.05859375,0.0390625,0.224609375t0.0390625,0.244140625l0,0.1171875q0.13671875,0.2734375,0.1953125,0.29296875q0.1171875,0,0.25390625,0.4296875q0.078125,0.09765625,0.244140625,0.322265625t0.224609375,0.322265625q0.15625,0.15625,0.234375,0.3125q0.078125,0.078125,0.283203125,0.224609375t0.283203125,0.224609375z M86.3375,70.17578125q-0.234375,0.2734375-0.68359375,0.76171875t-0.703125,0.76171875q0.859375-0.4296875,1.7578125-0.947265625t2.080078125-1.23046875t1.708984375-1.025390625q0.56640625-0.3515625,1.708984375-1.03515625t1.689453125-1.03515625q0.234375-0.13671875,0.693359375-0.419921875t0.673828125-0.419921875q0.01953125-0.09765625,0.09765625-0.263671875t0.09765625-0.224609375q0-0.15625,0.15625-0.46875l-0.0390625,0q-0.1171875,0-0.46875,0.3515625q-0.3515625,0.2734375-1.171875,0.68359375q-1.19140625,0.60546875-1.953125,1.07421875q-0.44921875,0.2734375-1.298828125,0.830078125t-0.947265625,0.615234375q-0.703125,0.44921875-0.95703125,0.56640625q-0.21484375,0.09765625-0.3125,0.2734375q-0.078125,0.15625-0.25390625,0.15625l-0.078125,0l0,0.1171875q0,0.1953125-0.15625,0.29296875q-0.0390625,0.0390625-0.1171875,0.0390625q-0.1171875,0-0.15625-0.0390625l-0.234375,0.1171875q-0.15625,0.01953125-0.458984375,0.263671875t-0.517578125,0.244140625q-0.01953125,0-0.068359375-0.01953125t-0.087890625-0.01953125z M94.4625,66.77734375l-0.390625,0.29296875l0.4296875-0.33203125l-0.0390625,0.0390625q-0.76171875,0.5078125-2.255859375,1.513671875t-2.255859375,1.494140625q2.0703125-1.2109375,3.90625-2.16796875q0.01953125,0,0.478515625-0.2734375t0.654296875-0.2734375l0-0.078125q0-0.33203125,0.1953125-0.72265625q-0.1171875,0.078125-0.361328125,0.25390625t-0.361328125,0.25390625z M91.18125,70.703125l-0.0390625,0.0390625q0.15625-0.078125,0.15625-0.1171875q-0.0390625,0.0390625-0.1171875,0.078125q-0.234375,0.17578125-0.4296875,0.2734375q0.2734375-0.13671875,1.42578125-0.87890625q-0.15625,0.09765625-0.498046875,0.302734375t-0.498046875,0.302734375z M91.74765625,71.015625l0.1171875-0.078125q-0.0390625,0.0390625-0.1171875,0.078125q-0.0390625,0.01953125-0.107421875,0.068359375t-0.107421875,0.068359375q0.52734375-0.13671875,1.6796875-0.83984375q0.01953125-0.1171875,0.15625-0.224609375t0.13671875-0.224609375q-1.34765625,0.87890625-1.7578125,1.15234375z M92.37265625,71.46484375l0.05859375,0l-0.05859375,0q0,0.078125,0.09765625,0.078125l0.15625-0.15625q-0.0390625,0.01953125-0.126953125,0.0390625t-0.126953125,0.0390625z M91.74765625,69.82421875l0.68359375-0.44921875q-0.29296875,0.17578125-0.68359375,0.44921875q0.37109375-0.21484375,1.07421875-0.6640625t1.07421875-0.6640625q0.68359375-0.390625,0.80078125-0.5078125q0-0.17578125,0.15625-0.41015625q-0.625,0.41015625-3.10546875,2.24609375z M95.69296875,63.18359375q-0.01953125-0.01953125-0.5859375,0.361328125t-1.240234375,0.83984375t-0.771484375,0.517578125q0.0390625-0.01953125,0.419921875-0.244140625t0.537109375-0.29296875t0.44921875-0.17578125t0.52734375-0.126953125q0.29296875,0,0.52734375-0.17578125t0.234375-0.4296875q0-0.0390625-0.01953125-0.078125t-0.0390625-0.09765625t-0.0390625-0.09765625z M95.14609375,59.62890625l0-0.078125q-0.5078125,0.4296875-1.5625,1.26953125t-1.5625,1.25q-0.0390625,0.0390625-0.517578125,0.41015625t-0.859375,0.72265625t-0.380859375,0.5078125l0,0.0390625q1.484375-0.83984375,3.4765625-2.01171875q0.25390625-0.13671875,0.771484375-0.439453125t0.791015625-0.439453125q0.078125-0.0390625,0.078125-0.234375q0-0.13671875-0.048828125-0.341796875t-0.107421875-0.400390625t-0.078125-0.25390625z M94.5015625,57.1875q-0.078125-0.15625-0.15625-0.234375q-0.41015625,0.52734375-0.947265625,1.07421875t-1.201171875,1.181640625t-1.015625,1.005859375q0.37109375-0.21484375,1.15234375-0.654296875t1.171875-0.654296875q0.17578125-0.1171875,0.556640625-0.341796875t0.556640625-0.341796875q0.078125-0.0390625,0.078125-0.1953125q0-0.05859375-0.1953125-0.83984375z M90.65390625,56.34765625q0.41015625-0.21484375,1.19140625-0.68359375t1.171875-0.68359375q-0.078125-0.0390625-0.146484375-0.09765625t-0.09765625-0.078125t-0.068359375-0.01953125q-0.078125,0-0.234375,0.15625q-0.09765625,0.078125-0.283203125,0.224609375t-0.283203125,0.224609375q-0.1953125,0.15625-0.625,0.478515625t-0.625,0.478515625z M77.6265625,55.2734375l0.5078125-0.29296875q-0.390625,0.21484375-0.5078125,0.29296875q1.6015625-0.91796875,2.91015625-1.73828125q0.3125-0.21484375,0.87890625-0.546875q0.25390625-0.15625,0.25390625-0.29296875q0-0.0390625-0.01953125-0.126953125t-0.01953125-0.146484375q-0.0390625-0.15625-0.0390625-0.46875l0-0.17578125q-0.09765625,0.05859375-0.09765625,0.25390625q0,0.234375-0.078125,0.3515625q-0.09765625,0.15625-0.234375,0.29296875t-0.390625,0.341796875t-0.29296875,0.244140625q-0.68359375,0.546875-2.87109375,2.01171875z M82.37265625,50.546875l0-0.0390625l0,0.0390625l0.05859375-0.0390625q-0.05859375,0-0.05859375,0.0390625z M79.071875,51.9921875q0.29296875-0.15625,0.986328125-0.595703125t1.083984375-0.654296875q0.3125-0.15625,0.3125-0.3515625q0-0.21484375-0.0390625-0.33203125q-1.6796875,1.2890625-3.06640625,2.16796875q-0.078125,0.0390625-0.46875,0.21484375t-0.6640625,0.3125t-0.517578125,0.3515625t-0.244140625,0.4296875q0.46875-0.29296875,1.38671875-0.8203125t1.23046875-0.72265625z M81.5328125,48.671875q-1.42578125,0.99609375-1.62109375,1.19140625q-0.234375,0.17578125-0.712890625,0.556640625t-0.732421875,0.556640625q-0.1171875,0.1171875-0.537109375,0.44921875t-0.68359375,0.576171875t-0.458984375,0.498046875q0.17578125-0.01953125,0.400390625-0.166015625t0.48828125-0.37109375t0.380859375-0.302734375q1.71875-1.09375,1.85546875-1.19140625q0.234375-0.13671875,0.68359375-0.419921875t0.703125-0.419921875q0.1953125-0.1171875,0.1953125-0.52734375q0-0.3125,0.0390625-0.4296875z M77.5484375,50.21484375q0.48828125-0.3125,1.416015625-0.8203125t1.142578125-0.64453125q1.15234375-0.703125,1.26953125-0.76171875q0.15625-0.078125,0.15625-0.37109375q0-0.078125-0.01953125-0.25390625t-0.01953125-0.25390625q0-0.17578125,0.0390625-0.25390625q-1.875,1.46484375-3.984375,3.359375z M81.5328125,46.26953125q0-0.0390625-0.15625,0.078125l0.15625-0.078125q0-0.0390625-0.0390625-0.0390625q-0.078125,0-0.283203125,0.146484375t-0.44921875,0.3515625t-0.263671875,0.224609375q0.17578125-0.1171875,0.517578125-0.341796875t0.517578125-0.341796875z M75.9078125,46.30859375l0.0390625,0l-0.0390625,0l-0.078125,0l-0.21484375,0q-0.1953125,0-0.2734375,0.1171875q-0.078125,0.09765625-0.244140625,0.322265625t-0.244140625,0.322265625q-0.15625,0.25390625-0.48828125,0.68359375t-0.4296875,0.5859375q0.25390625,0,0.498046875-0.09765625t0.546875-0.283203125t0.439453125-0.263671875q0.33203125-0.21484375,1.044921875-0.625t1.044921875-0.64453125q-0.1171875-0.0390625-0.41015625-0.0390625l-0.390625,0l-0.21484375,0q-0.4296875,0-0.5859375-0.078125z M73.77890625,46.15234375l0.0390625,0l-0.0390625,0q-0.13671875-0.0390625-0.2734375,0.234375q0.3125-0.15625,0.46875-0.2734375q-0.0390625,0.0390625-0.1953125,0.0390625z M73.38828125,48.41796875q0.078125,0,0.224609375-0.205078125t0.302734375-0.439453125t0.1953125-0.2734375q0.1171875-0.17578125,0.3515625-0.517578125t0.3515625-0.517578125q-0.0390625,0.01953125-0.400390625,0.263671875t-0.556640625,0.341796875q-0.1171875,0.078125-0.2734375,0.15625q-0.1171875,0.0390625-0.1171875,0.234375l0,0.1171875q0,0.37109375-0.078125,0.83984375z M74.8140625,48.45703125l0.21484375-0.078125q-0.05859375,0-0.21484375,0.078125q0.13671875,0.078125,0.478515625,0.25390625t0.498046875,0.2734375q0.078125,0.01953125,0.13671875,0.068359375t0.09765625,0.048828125q0.078125,0,0.15625-0.0390625q0.234375-0.15625,0.3515625-0.1953125q0.703125-0.4296875,0.9765625-0.64453125q0.37109375-0.2734375,1.435546875-1.03515625t1.669921875-1.171875l-0.078125,0q-0.078125,0-0.263671875,0.087890625t-0.283203125,0.087890625q-0.17578125,0-0.25390625-0.078125q-0.41015625,0.1171875-1.42578125,0.2734375q-0.5078125,0.3125-1.09375,0.6640625t-1.298828125,0.76171875t-1.103515625,0.64453125z M76.415625,60.390625q2.32421875-1.5234375,2.59765625-1.71875q-0.25390625,0.15625-0.78125,0.478515625t-0.80078125,0.478515625q-0.078125,0.0390625-0.302734375,0.13671875t-0.33203125,0.15625t-0.234375,0.185546875t-0.146484375,0.283203125z M76.63046875,61.0546875l-0.0390625,0l0.0390625,0q-0.09765625,0.0390625-0.09765625,0.09765625l0,0.078125q0.01953125-0.01953125,0.048828125-0.087890625t0.048828125-0.087890625z M76.59140625,64.58984375l0,0.1171875q0.52734375-0.46875,1.767578125-1.533203125t1.904296875-1.630859375q-0.390625,0.234375-1.15234375,0.673828125t-1.1328125,0.654296875q-0.1953125,0.1171875-0.595703125,0.361328125t-0.595703125,0.361328125q-0.1953125,0.09765625-0.1953125,0.390625q0,0.05859375,0.01953125,0.1953125t0.01953125,0.1953125q0,0.13671875-0.0390625,0.21484375z M79.01328125,71.9921875l0.09765625,0q0.3515625,0,0.46875,0.1171875q0.05859375-0.01953125,0.185546875-0.244140625t0.146484375-0.244140625q0-0.41015625,0.15625-0.56640625q0.01953125-0.078125,0.0390625-0.21484375t0.0390625-0.21484375q-0.72265625,0.390625-2.01171875,1.2890625l0.21484375,0q0.3515625,0,0.6640625,0.078125z M81.94296875,70.546875q-0.01953125-0.01953125,0.29296875-0.41015625t0.4296875-0.5078125q-0.09765625,0.05859375-0.302734375,0.17578125t-0.400390625,0.263671875t-0.17578125,0.205078125q0.078125,0.15625,0.15625,0.2734375z M82.37265625,70.859375l0.05859375,0l-0.05859375,0q0.25390625,0.05859375,0.64453125,0.44921875q0.15625-0.234375,0.498046875-0.72265625t0.498046875-0.72265625q0.09765625-0.09765625,0.09765625-0.1953125q-0.17578125,0-0.52734375,0.234375q-0.17578125,0.09765625-0.634765625,0.41015625t-0.732421875,0.46875q0.078125,0.078125,0.15625,0.078125z M84.1109375,72.0703125l-0.0390625-0.078125q0,0.0390625,0.0390625,0.078125q0.13671875,0,0.625-0.72265625q0.25390625-0.25390625,0.72265625-0.80078125q-0.05859375,0.0390625-0.732421875,0.556640625t-1.025390625,0.751953125q0.01953125,0.01953125,0.17578125,0.068359375t0.234375,0.146484375z M84.5796875,72.265625q0.4296875,0,0.72265625,0.1953125q1.03515625-0.7421875,1.5234375-1.03515625q2.4609375-1.6796875,3.75-2.51953125q-3.37890625,2.01171875-4.43359375,2.59765625l-0.4296875,0.25390625q-0.41015625,0.234375-0.7421875,0.400390625t-0.390625,0.107421875z M90.30234375,71.9921875l-0.0390625,0.0390625l0.1171875-0.078125q-0.0390625,0-0.078125,0.0390625l-0.21484375,0.15625q-0.21484375,0.13671875-0.3125,0.234375q0.05859375,0.01953125,0.087890625,0.0390625t0.048828125,0.029296875t0.0390625,0.009765625q0.0390625,0,0.1171875-0.078125q0.1171875-0.1171875,0.234375-0.1171875q0.13671875-0.1171875,0.33203125-0.361328125t0.2734375-0.322265625q-0.37109375,0.21484375-0.60546875,0.41015625z"/><path fill="#" d=""/></svg>
